<?xml version="1.0" encoding="UTF-8" standalone="no"?>
<svg width="89.6056mm" height="57.15mm"
 viewBox="0 0 254 162"
 xmlns="http://www.w3.org/2000/svg" xmlns:xlink="http://www.w3.org/1999/xlink"  version="1.2" baseProfile="tiny">
<title>Qt SVG Document</title>
<desc>MATLAB, The MathWorks, Inc. Version 25.1.0.2943329 R2025a</desc>
<defs>
</defs>
<g fill="none" stroke="black" stroke-width="1" fill-rule="evenodd" stroke-linecap="square" stroke-linejoin="bevel" >

<g fill="#ffffff" fill-opacity="1" stroke="none" transform="matrix(0.5,0,0,0.5,-5.06452,-7.27997)"
font-family=".AppleSystemUIFont" font-size="13" font-weight="400" font-style="normal" 
>
<path vector-effect="none" fill-rule="evenodd" d="M9,13 L517,13 L517,337 L9,337 L9,13"/>
</g>

<g fill="#ffffff" fill-opacity="1" stroke="none" transform="matrix(5e-05,0,0,5e-05,-5.06452,-7.27997)"
font-family=".AppleSystemUIFont" font-size="13" font-weight="400" font-style="normal" 
>
<path vector-effect="none" fill-rule="evenodd" d="M740000,260000 L740000,2.85e+06 L5.13e+06,2.85e+06 L5.13e+06,260000 L740000,260000"/>
</g>

<g fill="#212121" fill-opacity="1" stroke="none" transform="matrix(0.5,0,0,0.5,109.668,159.546)"
font-family=".AppleSystemUIFont" font-size="13" font-weight="400" font-style="normal" 
>
<path vector-effect="none" fill-rule="evenodd" d="M5,0.224609 C4.19922,0.224609 3.45703,0.0211589 2.77344,-0.385742 C2.08984,-0.792643 1.54948,-1.33789 1.15234,-2.02148 C0.755208,-2.70508 0.556641,-3.45052 0.556641,-4.25781 C0.556641,-4.86979 0.66569,-5.45898 0.883789,-6.02539 C1.10189,-6.5918 1.41439,-7.09798 1.82129,-7.54395 C2.22819,-7.98991 2.70182,-8.33822 3.24219,-8.58887 C3.78255,-8.83952 4.36849,-8.96484 5,-8.96484 C5.82031,-8.96484 6.56738,-8.74837 7.24121,-8.31543 C7.91504,-7.88249 8.44727,-7.30306 8.83789,-6.57715 C9.22852,-5.85124 9.42383,-5.07813 9.42383,-4.25781 C9.42383,-3.45703 9.22526,-2.71322 8.82813,-2.02637 C8.43099,-1.33952 7.89225,-0.792643 7.21191,-0.385742 C6.53158,0.0211589 5.79427,0.224609 5,0.224609 M5,-0.361328 C6.06771,-0.361328 6.7806,-0.748698 7.13867,-1.52344 C7.49674,-2.29818 7.67578,-3.28451 7.67578,-4.48242 C7.67578,-5.15299 7.63997,-5.70801 7.56836,-6.14746 C7.49674,-6.58691 7.34049,-6.98568 7.09961,-7.34375 C6.94987,-7.5651 6.75944,-7.75879 6.52832,-7.9248 C6.2972,-8.09082 6.05306,-8.21777 5.7959,-8.30566 C5.53874,-8.39355 5.27344,-8.4375 5,-8.4375 C4.58333,-8.4375 4.18783,-8.3431 3.81348,-8.1543 C3.43913,-7.96549 3.12826,-7.69531 2.88086,-7.34375 C2.63346,-6.96615 2.47559,-6.55111 2.40723,-6.09863 C2.33887,-5.64616 2.30469,-5.10742 2.30469,-4.48242 C2.30469,-3.73372 2.36979,-3.06152 2.5,-2.46582 C2.63021,-1.87012 2.89225,-1.37044 3.28613,-0.966797 C3.68001,-0.563151 4.2513,-0.361328 5,-0.361328 "/>
</g>

<g fill="#212121" fill-opacity="1" stroke="none" transform="matrix(0.5,0,0,0.5,114.893,159.546)"
font-family=".AppleSystemUIFont" font-size="13" font-weight="400" font-style="normal" 
>
<path vector-effect="none" fill-rule="evenodd" d="M0.517578,0 L0.517578,-0.703125 C0.973307,-0.703125 1.34766,-0.738932 1.64063,-0.810547 C1.93359,-0.882161 2.08008,-1.05794 2.08008,-1.33789 L2.08008,-6.79688 C2.08008,-7.15495 2.02637,-7.41374 1.91895,-7.57324 C1.81152,-7.73275 1.6569,-7.8304 1.45508,-7.86621 C1.25326,-7.90202 0.940755,-7.91992 0.517578,-7.91992 L0.517578,-8.62305 L3.37891,-8.83789 L3.37891,-6.88477 C3.59375,-7.46419 3.89974,-7.93457 4.29688,-8.2959 C4.69401,-8.65723 5.17578,-8.83789 5.74219,-8.83789 C6.13932,-8.83789 6.49414,-8.7207 6.80664,-8.48633 C7.11914,-8.25195 7.27539,-7.94271 7.27539,-7.55859 C7.27539,-7.31771 7.18913,-7.10775 7.0166,-6.92871 C6.84408,-6.74967 6.63086,-6.66016 6.37695,-6.66016 C6.12956,-6.66016 5.91797,-6.74805 5.74219,-6.92383 C5.56641,-7.09961 5.47852,-7.3112 5.47852,-7.55859 C5.47852,-7.91667 5.60547,-8.17057 5.85938,-8.32031 L5.74219,-8.32031 C5.20182,-8.32031 4.76074,-8.125 4.41895,-7.73438 C4.07715,-7.34375 3.83464,-6.85872 3.69141,-6.2793 C3.54818,-5.69987 3.47656,-5.14648 3.47656,-4.61914 L3.47656,-1.33789 C3.47656,-0.914714 4.12435,-0.703125 5.41992,-0.703125 L5.41992,0 L0.517578,0"/>
</g>

<g fill="#212121" fill-opacity="1" stroke="none" transform="matrix(0.5,0,0,0.5,118.986,159.546)"
font-family=".AppleSystemUIFont" font-size="13" font-weight="400" font-style="normal" 
>
<path vector-effect="none" fill-rule="evenodd" d="M4.88281,0.224609 C4.09505,0.224609 3.37565,0.0113932 2.72461,-0.415039 C2.07357,-0.841471 1.56738,-1.40299 1.20605,-2.09961 C0.844727,-2.79622 0.664063,-3.53516 0.664063,-4.31641 C0.664063,-5.1237 0.861003,-5.87402 1.25488,-6.56738 C1.64876,-7.26074 2.18424,-7.8125 2.86133,-8.22266 C3.53841,-8.63281 4.28385,-8.83789 5.09766,-8.83789 C5.58594,-8.83789 6.04818,-8.73535 6.48438,-8.53027 C6.92057,-8.3252 7.29818,-8.04036 7.61719,-7.67578 L7.61719,-11.8359 C7.61719,-12.194 7.56348,-12.4528 7.45605,-12.6123 C7.34863,-12.7718 7.19564,-12.8695 6.99707,-12.9053 C6.7985,-12.9411 6.48763,-12.959 6.06445,-12.959 L6.06445,-13.6621 L9.02344,-13.877 L9.02344,-1.81641 C9.02344,-1.46484 9.07715,-1.20931 9.18457,-1.0498 C9.29199,-0.890299 9.44499,-0.792643 9.64355,-0.756836 C9.84212,-0.721029 10.153,-0.703125 10.5762,-0.703125 L10.5762,0 L7.55859,0.224609 L7.55859,-1.03516 C7.21354,-0.638021 6.80339,-0.328776 6.32813,-0.107422 C5.85286,0.113932 5.37109,0.224609 4.88281,0.224609 M2.8418,-1.73828 C3.06966,-1.30208 3.37402,-0.953776 3.75488,-0.693359 C4.13574,-0.432943 4.55078,-0.302734 5,-0.302734 C5.55339,-0.302734 6.0612,-0.46224 6.52344,-0.78125 C6.98568,-1.10026 7.33073,-1.51367 7.55859,-2.02148 L7.55859,-6.81641 C7.40234,-7.10938 7.2054,-7.37142 6.96777,-7.60254 C6.73014,-7.83366 6.46322,-8.01107 6.16699,-8.13477 C5.87077,-8.25846 5.55664,-8.32031 5.22461,-8.32031 C4.52799,-8.32031 3.9681,-8.12337 3.54492,-7.72949 C3.12174,-7.33561 2.82552,-6.83268 2.65625,-6.2207 C2.48698,-5.60872 2.40234,-4.96745 2.40234,-4.29688 C2.40234,-3.76302 2.43001,-3.29753 2.48535,-2.90039 C2.54069,-2.50326 2.65951,-2.11589 2.8418,-1.73828 "/>
</g>

<g fill="#212121" fill-opacity="1" stroke="none" transform="matrix(0.5,0,0,0.5,124.791,159.546)"
font-family=".AppleSystemUIFont" font-size="13" font-weight="400" font-style="normal" 
>
<path vector-effect="none" fill-rule="evenodd" d="M4.98047,0.224609 C4.16667,0.224609 3.4196,0.0113932 2.73926,-0.415039 C2.05892,-0.841471 1.52507,-1.41113 1.1377,-2.12402 C0.750326,-2.83691 0.556641,-3.59049 0.556641,-4.38477 C0.556641,-5.16602 0.734049,-5.9082 1.08887,-6.61133 C1.44368,-7.31445 1.93848,-7.88249 2.57324,-8.31543 C3.20801,-8.74837 3.91602,-8.96484 4.69727,-8.96484 C5.30924,-8.96484 5.84147,-8.8623 6.29395,-8.65723 C6.74642,-8.45215 7.11914,-8.16732 7.41211,-7.80273 C7.70508,-7.43815 7.92643,-7.00846 8.07617,-6.51367 C8.22591,-6.01888 8.30078,-5.47526 8.30078,-4.88281 C8.30078,-4.70703 8.23242,-4.61914 8.0957,-4.61914 L2.30469,-4.61914 L2.30469,-4.4043 C2.30469,-3.29753 2.52767,-2.34701 2.97363,-1.55273 C3.4196,-0.758464 4.14714,-0.361328 5.15625,-0.361328 C5.56641,-0.361328 5.94564,-0.452474 6.29395,-0.634766 C6.64225,-0.817057 6.94499,-1.07096 7.20215,-1.39648 C7.45931,-1.72201 7.63346,-2.07031 7.72461,-2.44141 C7.73763,-2.48698 7.76204,-2.52767 7.79785,-2.56348 C7.83366,-2.59928 7.87435,-2.61719 7.91992,-2.61719 L8.0957,-2.61719 C8.23242,-2.61719 8.30078,-2.53255 8.30078,-2.36328 C8.11198,-1.60807 7.70508,-0.987956 7.08008,-0.50293 C6.45508,-0.0179036 5.75521,0.224609 4.98047,0.224609 M2.32422,-5.11719 L6.88477,-5.11719 C6.88477,-5.61849 6.81478,-6.1263 6.6748,-6.64063 C6.53483,-7.15495 6.30208,-7.58301 5.97656,-7.9248 C5.65104,-8.2666 5.22461,-8.4375 4.69727,-8.4375 C3.94206,-8.4375 3.35775,-8.08431 2.94434,-7.37793 C2.53092,-6.67155 2.32422,-5.91797 2.32422,-5.11719 "/>
</g>

<g fill="#212121" fill-opacity="1" stroke="none" transform="matrix(0.5,0,0,0.5,129.436,159.546)"
font-family=".AppleSystemUIFont" font-size="13" font-weight="400" font-style="normal" 
>
<path vector-effect="none" fill-rule="evenodd" d="M0.517578,0 L0.517578,-0.703125 C0.973307,-0.703125 1.34766,-0.738932 1.64063,-0.810547 C1.93359,-0.882161 2.08008,-1.05794 2.08008,-1.33789 L2.08008,-6.79688 C2.08008,-7.15495 2.02637,-7.41374 1.91895,-7.57324 C1.81152,-7.73275 1.6569,-7.8304 1.45508,-7.86621 C1.25326,-7.90202 0.940755,-7.91992 0.517578,-7.91992 L0.517578,-8.62305 L3.37891,-8.83789 L3.37891,-6.88477 C3.59375,-7.46419 3.89974,-7.93457 4.29688,-8.2959 C4.69401,-8.65723 5.17578,-8.83789 5.74219,-8.83789 C6.13932,-8.83789 6.49414,-8.7207 6.80664,-8.48633 C7.11914,-8.25195 7.27539,-7.94271 7.27539,-7.55859 C7.27539,-7.31771 7.18913,-7.10775 7.0166,-6.92871 C6.84408,-6.74967 6.63086,-6.66016 6.37695,-6.66016 C6.12956,-6.66016 5.91797,-6.74805 5.74219,-6.92383 C5.56641,-7.09961 5.47852,-7.3112 5.47852,-7.55859 C5.47852,-7.91667 5.60547,-8.17057 5.85938,-8.32031 L5.74219,-8.32031 C5.20182,-8.32031 4.76074,-8.125 4.41895,-7.73438 C4.07715,-7.34375 3.83464,-6.85872 3.69141,-6.2793 C3.54818,-5.69987 3.47656,-5.14648 3.47656,-4.61914 L3.47656,-1.33789 C3.47656,-0.914714 4.12435,-0.703125 5.41992,-0.703125 L5.41992,0 L0.517578,0"/>
</g>

<g fill="#212121" fill-opacity="1" stroke="none" transform="matrix(0.5,0,0,0.5,133.529,159.546)"
font-family=".AppleSystemUIFont" font-size="13" font-weight="400" font-style="normal" 
>
<path vector-effect="none" fill-rule="evenodd" d="M4.98047,0.224609 C4.16667,0.224609 3.4196,0.0113932 2.73926,-0.415039 C2.05892,-0.841471 1.52507,-1.41113 1.1377,-2.12402 C0.750326,-2.83691 0.556641,-3.59049 0.556641,-4.38477 C0.556641,-5.16602 0.734049,-5.9082 1.08887,-6.61133 C1.44368,-7.31445 1.93848,-7.88249 2.57324,-8.31543 C3.20801,-8.74837 3.91602,-8.96484 4.69727,-8.96484 C5.30924,-8.96484 5.84147,-8.8623 6.29395,-8.65723 C6.74642,-8.45215 7.11914,-8.16732 7.41211,-7.80273 C7.70508,-7.43815 7.92643,-7.00846 8.07617,-6.51367 C8.22591,-6.01888 8.30078,-5.47526 8.30078,-4.88281 C8.30078,-4.70703 8.23242,-4.61914 8.0957,-4.61914 L2.30469,-4.61914 L2.30469,-4.4043 C2.30469,-3.29753 2.52767,-2.34701 2.97363,-1.55273 C3.4196,-0.758464 4.14714,-0.361328 5.15625,-0.361328 C5.56641,-0.361328 5.94564,-0.452474 6.29395,-0.634766 C6.64225,-0.817057 6.94499,-1.07096 7.20215,-1.39648 C7.45931,-1.72201 7.63346,-2.07031 7.72461,-2.44141 C7.73763,-2.48698 7.76204,-2.52767 7.79785,-2.56348 C7.83366,-2.59928 7.87435,-2.61719 7.91992,-2.61719 L8.0957,-2.61719 C8.23242,-2.61719 8.30078,-2.53255 8.30078,-2.36328 C8.11198,-1.60807 7.70508,-0.987956 7.08008,-0.50293 C6.45508,-0.0179036 5.75521,0.224609 4.98047,0.224609 M2.32422,-5.11719 L6.88477,-5.11719 C6.88477,-5.61849 6.81478,-6.1263 6.6748,-6.64063 C6.53483,-7.15495 6.30208,-7.58301 5.97656,-7.9248 C5.65104,-8.2666 5.22461,-8.4375 4.69727,-8.4375 C3.94206,-8.4375 3.35775,-8.08431 2.94434,-7.37793 C2.53092,-6.67155 2.32422,-5.91797 2.32422,-5.11719 "/>
</g>

<g fill="#212121" fill-opacity="1" stroke="none" transform="matrix(0.5,0,0,0.5,138.173,159.546)"
font-family=".AppleSystemUIFont" font-size="13" font-weight="400" font-style="normal" 
>
<path vector-effect="none" fill-rule="evenodd" d="M4.88281,0.224609 C4.09505,0.224609 3.37565,0.0113932 2.72461,-0.415039 C2.07357,-0.841471 1.56738,-1.40299 1.20605,-2.09961 C0.844727,-2.79622 0.664063,-3.53516 0.664063,-4.31641 C0.664063,-5.1237 0.861003,-5.87402 1.25488,-6.56738 C1.64876,-7.26074 2.18424,-7.8125 2.86133,-8.22266 C3.53841,-8.63281 4.28385,-8.83789 5.09766,-8.83789 C5.58594,-8.83789 6.04818,-8.73535 6.48438,-8.53027 C6.92057,-8.3252 7.29818,-8.04036 7.61719,-7.67578 L7.61719,-11.8359 C7.61719,-12.194 7.56348,-12.4528 7.45605,-12.6123 C7.34863,-12.7718 7.19564,-12.8695 6.99707,-12.9053 C6.7985,-12.9411 6.48763,-12.959 6.06445,-12.959 L6.06445,-13.6621 L9.02344,-13.877 L9.02344,-1.81641 C9.02344,-1.46484 9.07715,-1.20931 9.18457,-1.0498 C9.29199,-0.890299 9.44499,-0.792643 9.64355,-0.756836 C9.84212,-0.721029 10.153,-0.703125 10.5762,-0.703125 L10.5762,0 L7.55859,0.224609 L7.55859,-1.03516 C7.21354,-0.638021 6.80339,-0.328776 6.32813,-0.107422 C5.85286,0.113932 5.37109,0.224609 4.88281,0.224609 M2.8418,-1.73828 C3.06966,-1.30208 3.37402,-0.953776 3.75488,-0.693359 C4.13574,-0.432943 4.55078,-0.302734 5,-0.302734 C5.55339,-0.302734 6.0612,-0.46224 6.52344,-0.78125 C6.98568,-1.10026 7.33073,-1.51367 7.55859,-2.02148 L7.55859,-6.81641 C7.40234,-7.10938 7.2054,-7.37142 6.96777,-7.60254 C6.73014,-7.83366 6.46322,-8.01107 6.16699,-8.13477 C5.87077,-8.25846 5.55664,-8.32031 5.22461,-8.32031 C4.52799,-8.32031 3.9681,-8.12337 3.54492,-7.72949 C3.12174,-7.33561 2.82552,-6.83268 2.65625,-6.2207 C2.48698,-5.60872 2.40234,-4.96745 2.40234,-4.29688 C2.40234,-3.76302 2.43001,-3.29753 2.48535,-2.90039 C2.54069,-2.50326 2.65951,-2.11589 2.8418,-1.73828 "/>
</g>

<g fill="#212121" fill-opacity="1" stroke="none" transform="matrix(0.5,0,0,0.5,147.462,159.546)"
font-family=".AppleSystemUIFont" font-size="13" font-weight="400" font-style="normal" 
>
<path vector-effect="none" fill-rule="evenodd" d="M0.664063,0.0585938 L0.664063,-3.20313 C0.664063,-3.30729 0.722656,-3.35938 0.839844,-3.35938 L1.08398,-3.35938 C1.16211,-3.35938 1.21419,-3.30729 1.24023,-3.20313 C1.61133,-1.26953 2.50977,-0.302734 3.93555,-0.302734 C4.56706,-0.302734 5.09603,-0.445964 5.52246,-0.732422 C5.94889,-1.01888 6.16211,-1.46159 6.16211,-2.06055 C6.16211,-2.49023 5.99609,-2.85645 5.66406,-3.15918 C5.33203,-3.46191 4.93815,-3.66862 4.48242,-3.7793 L3.14453,-4.04297 C2.69531,-4.14063 2.28678,-4.29036 1.91895,-4.49219 C1.55111,-4.69401 1.25,-4.96257 1.01563,-5.29785 C0.78125,-5.63314 0.664063,-6.02214 0.664063,-6.46484 C0.664063,-7.05078 0.818685,-7.53092 1.12793,-7.90527 C1.43717,-8.27962 1.83919,-8.5498 2.33398,-8.71582 C2.82878,-8.88184 3.36263,-8.96484 3.93555,-8.96484 C4.61914,-8.96484 5.21484,-8.78255 5.72266,-8.41797 L6.29883,-8.91602 C6.29883,-8.94857 6.33138,-8.96484 6.39648,-8.96484 L6.54297,-8.96484 C6.58203,-8.96484 6.61784,-8.94694 6.65039,-8.91113 C6.68294,-8.87533 6.69922,-8.83789 6.69922,-8.79883 L6.69922,-6.18164 C6.69922,-6.05794 6.64714,-5.99609 6.54297,-5.99609 L6.29883,-5.99609 C6.18164,-5.99609 6.12305,-6.05794 6.12305,-6.18164 C6.12305,-6.87826 5.92936,-7.43815 5.54199,-7.86133 C5.15462,-8.28451 4.61263,-8.49609 3.91602,-8.49609 C3.31706,-8.49609 2.79785,-8.38542 2.3584,-8.16406 C1.91895,-7.94271 1.69922,-7.56185 1.69922,-7.02148 C1.69922,-6.65039 1.8571,-6.34603 2.17285,-6.1084 C2.48861,-5.87077 2.85807,-5.69987 3.28125,-5.5957 L4.63867,-5.3418 C5.0944,-5.23763 5.51921,-5.06185 5.91309,-4.81445 C6.30697,-4.56706 6.61947,-4.25456 6.85059,-3.87695 C7.08171,-3.49935 7.19727,-3.07292 7.19727,-2.59766 C7.19727,-2.11589 7.11426,-1.69759 6.94824,-1.34277 C6.78223,-0.987956 6.55111,-0.693359 6.25488,-0.458984 C5.95866,-0.224609 5.60872,-0.0520833 5.20508,0.0585938 C4.80143,0.169271 4.37826,0.224609 3.93555,0.224609 C3.10221,0.224609 2.38932,-0.0553385 1.79688,-0.615234 L1.06445,0.175781 C1.06445,0.208333 1.02865,0.224609 0.957031,0.224609 L0.839844,0.224609 C0.722656,0.224609 0.664063,0.169271 0.664063,0.0585938 "/>
</g>

<g fill="#212121" fill-opacity="1" stroke="none" transform="matrix(0.5,0,0,0.5,151.584,159.546)"
font-family=".AppleSystemUIFont" font-size="13" font-weight="400" font-style="normal" 
>
<path vector-effect="none" fill-rule="evenodd" d="M2.04102,-2.40234 L2.04102,-7.91992 L0.380859,-7.91992 L0.380859,-8.4375 C1.25326,-8.4375 1.89453,-8.8444 2.30469,-9.6582 C2.71484,-10.472 2.91992,-11.3542 2.91992,-12.3047 L3.49609,-12.3047 L3.49609,-8.62305 L6.31836,-8.62305 L6.31836,-7.91992 L3.49609,-7.91992 L3.49609,-2.44141 C3.49609,-1.88802 3.58887,-1.40299 3.77441,-0.986328 C3.95996,-0.569661 4.29362,-0.361328 4.77539,-0.361328 C5.23112,-0.361328 5.5599,-0.581055 5.76172,-1.02051 C5.96354,-1.45996 6.06445,-1.93359 6.06445,-2.44141 L6.06445,-3.62305 L6.64063,-3.62305 L6.64063,-2.40234 C6.64063,-1.98568 6.56413,-1.57389 6.41113,-1.16699 C6.25814,-0.760091 6.0319,-0.426432 5.73242,-0.166016 C5.43294,0.094401 5.06836,0.224609 4.63867,0.224609 C3.83789,0.224609 3.20475,-0.0146484 2.73926,-0.493164 C2.27376,-0.97168 2.04102,-1.60807 2.04102,-2.40234 "/>
</g>

<g fill="#212121" fill-opacity="1" stroke="none" transform="matrix(0.5,0,0,0.5,155.648,159.546)"
font-family=".AppleSystemUIFont" font-size="13" font-weight="400" font-style="normal" 
>
<path vector-effect="none" fill-rule="evenodd" d="M0.800781,-1.96289 C0.800781,-2.75716 1.11328,-3.40332 1.73828,-3.90137 C2.36328,-4.39941 3.11361,-4.75098 3.98926,-4.95605 C4.86491,-5.16113 5.69661,-5.26367 6.48438,-5.26367 L6.48438,-6.08398 C6.48438,-6.4681 6.39974,-6.84082 6.23047,-7.20215 C6.0612,-7.56348 5.81706,-7.8597 5.49805,-8.09082 C5.17904,-8.32194 4.82747,-8.4375 4.44336,-8.4375 C3.55794,-8.4375 2.88411,-8.23893 2.42188,-7.8418 C2.67578,-7.8418 2.88574,-7.74577 3.05176,-7.55371 C3.21777,-7.36165 3.30078,-7.13867 3.30078,-6.88477 C3.30078,-6.61784 3.20638,-6.38997 3.01758,-6.20117 C2.82878,-6.01237 2.60417,-5.91797 2.34375,-5.91797 C2.07682,-5.91797 1.84896,-6.01237 1.66016,-6.20117 C1.47135,-6.38997 1.37695,-6.61784 1.37695,-6.88477 C1.37695,-7.58789 1.69596,-8.11035 2.33398,-8.45215 C2.97201,-8.79395 3.67513,-8.96484 4.44336,-8.96484 C4.98372,-8.96484 5.52734,-8.84928 6.07422,-8.61816 C6.62109,-8.38704 7.06868,-8.05664 7.41699,-7.62695 C7.7653,-7.19727 7.93945,-6.69596 7.93945,-6.12305 L7.93945,-1.62109 C7.93945,-1.36068 7.99479,-1.12142 8.10547,-0.90332 C8.21615,-0.685221 8.38867,-0.576172 8.62305,-0.576172 C8.8444,-0.576172 9.00879,-0.686849 9.11621,-0.908203 C9.22363,-1.12956 9.27734,-1.36719 9.27734,-1.62109 L9.27734,-2.90039 L9.86328,-2.90039 L9.86328,-1.62109 C9.86328,-1.32161 9.78516,-1.03678 9.62891,-0.766602 C9.47266,-0.496419 9.2627,-0.281576 8.99902,-0.12207 C8.73535,0.0374349 8.45052,0.117188 8.14453,0.117188 C7.75391,0.117188 7.41699,-0.0341797 7.13379,-0.336914 C6.85059,-0.639648 6.69271,-0.999349 6.66016,-1.41602 C6.41276,-0.914714 6.04818,-0.515951 5.56641,-0.219727 C5.08464,0.0764974 4.57031,0.224609 4.02344,0.224609 C3.51563,0.224609 3.01595,0.14974 2.52441,0 C2.03288,-0.14974 1.62272,-0.385742 1.29395,-0.708008 C0.965169,-1.03027 0.800781,-1.44857 0.800781,-1.96289 M2.42188,-1.96289 C2.42188,-1.49414 2.5944,-1.10026 2.93945,-0.78125 C3.28451,-0.46224 3.69141,-0.302734 4.16016,-0.302734 C4.58984,-0.302734 4.98047,-0.410156 5.33203,-0.625 C5.68359,-0.839844 5.96354,-1.13281 6.17188,-1.50391 C6.38021,-1.875 6.48438,-2.26563 6.48438,-2.67578 L6.48438,-4.75586 C5.87891,-4.75586 5.25879,-4.65658 4.62402,-4.45801 C3.98926,-4.25944 3.46354,-3.94857 3.04688,-3.52539 C2.63021,-3.10221 2.42188,-2.58138 2.42188,-1.96289 "/>
</g>

<g fill="#212121" fill-opacity="1" stroke="none" transform="matrix(0.5,0,0,0.5,160.873,159.546)"
font-family=".AppleSystemUIFont" font-size="13" font-weight="400" font-style="normal" 
>
<path vector-effect="none" fill-rule="evenodd" d="M2.04102,-2.40234 L2.04102,-7.91992 L0.380859,-7.91992 L0.380859,-8.4375 C1.25326,-8.4375 1.89453,-8.8444 2.30469,-9.6582 C2.71484,-10.472 2.91992,-11.3542 2.91992,-12.3047 L3.49609,-12.3047 L3.49609,-8.62305 L6.31836,-8.62305 L6.31836,-7.91992 L3.49609,-7.91992 L3.49609,-2.44141 C3.49609,-1.88802 3.58887,-1.40299 3.77441,-0.986328 C3.95996,-0.569661 4.29362,-0.361328 4.77539,-0.361328 C5.23112,-0.361328 5.5599,-0.581055 5.76172,-1.02051 C5.96354,-1.45996 6.06445,-1.93359 6.06445,-2.44141 L6.06445,-3.62305 L6.64063,-3.62305 L6.64063,-2.40234 C6.64063,-1.98568 6.56413,-1.57389 6.41113,-1.16699 C6.25814,-0.760091 6.0319,-0.426432 5.73242,-0.166016 C5.43294,0.094401 5.06836,0.224609 4.63867,0.224609 C3.83789,0.224609 3.20475,-0.0146484 2.73926,-0.493164 C2.27376,-0.97168 2.04102,-1.60807 2.04102,-2.40234 "/>
</g>

<g fill="#212121" fill-opacity="1" stroke="none" transform="matrix(0.5,0,0,0.5,164.937,159.546)"
font-family=".AppleSystemUIFont" font-size="13" font-weight="400" font-style="normal" 
>
<path vector-effect="none" fill-rule="evenodd" d="M4.98047,0.224609 C4.16667,0.224609 3.4196,0.0113932 2.73926,-0.415039 C2.05892,-0.841471 1.52507,-1.41113 1.1377,-2.12402 C0.750326,-2.83691 0.556641,-3.59049 0.556641,-4.38477 C0.556641,-5.16602 0.734049,-5.9082 1.08887,-6.61133 C1.44368,-7.31445 1.93848,-7.88249 2.57324,-8.31543 C3.20801,-8.74837 3.91602,-8.96484 4.69727,-8.96484 C5.30924,-8.96484 5.84147,-8.8623 6.29395,-8.65723 C6.74642,-8.45215 7.11914,-8.16732 7.41211,-7.80273 C7.70508,-7.43815 7.92643,-7.00846 8.07617,-6.51367 C8.22591,-6.01888 8.30078,-5.47526 8.30078,-4.88281 C8.30078,-4.70703 8.23242,-4.61914 8.0957,-4.61914 L2.30469,-4.61914 L2.30469,-4.4043 C2.30469,-3.29753 2.52767,-2.34701 2.97363,-1.55273 C3.4196,-0.758464 4.14714,-0.361328 5.15625,-0.361328 C5.56641,-0.361328 5.94564,-0.452474 6.29395,-0.634766 C6.64225,-0.817057 6.94499,-1.07096 7.20215,-1.39648 C7.45931,-1.72201 7.63346,-2.07031 7.72461,-2.44141 C7.73763,-2.48698 7.76204,-2.52767 7.79785,-2.56348 C7.83366,-2.59928 7.87435,-2.61719 7.91992,-2.61719 L8.0957,-2.61719 C8.23242,-2.61719 8.30078,-2.53255 8.30078,-2.36328 C8.11198,-1.60807 7.70508,-0.987956 7.08008,-0.50293 C6.45508,-0.0179036 5.75521,0.224609 4.98047,0.224609 M2.32422,-5.11719 L6.88477,-5.11719 C6.88477,-5.61849 6.81478,-6.1263 6.6748,-6.64063 C6.53483,-7.15495 6.30208,-7.58301 5.97656,-7.9248 C5.65104,-8.2666 5.22461,-8.4375 4.69727,-8.4375 C3.94206,-8.4375 3.35775,-8.08431 2.94434,-7.37793 C2.53092,-6.67155 2.32422,-5.91797 2.32422,-5.11719 "/>
</g>

<g fill="#212121" fill-opacity="1" stroke="none" transform="matrix(0.5,0,0,0.5,169.581,159.546)"
font-family=".AppleSystemUIFont" font-size="13" font-weight="400" font-style="normal" 
>
<path vector-effect="none" fill-rule="evenodd" d="M0.664063,0.0585938 L0.664063,-3.20313 C0.664063,-3.30729 0.722656,-3.35938 0.839844,-3.35938 L1.08398,-3.35938 C1.16211,-3.35938 1.21419,-3.30729 1.24023,-3.20313 C1.61133,-1.26953 2.50977,-0.302734 3.93555,-0.302734 C4.56706,-0.302734 5.09603,-0.445964 5.52246,-0.732422 C5.94889,-1.01888 6.16211,-1.46159 6.16211,-2.06055 C6.16211,-2.49023 5.99609,-2.85645 5.66406,-3.15918 C5.33203,-3.46191 4.93815,-3.66862 4.48242,-3.7793 L3.14453,-4.04297 C2.69531,-4.14063 2.28678,-4.29036 1.91895,-4.49219 C1.55111,-4.69401 1.25,-4.96257 1.01563,-5.29785 C0.78125,-5.63314 0.664063,-6.02214 0.664063,-6.46484 C0.664063,-7.05078 0.818685,-7.53092 1.12793,-7.90527 C1.43717,-8.27962 1.83919,-8.5498 2.33398,-8.71582 C2.82878,-8.88184 3.36263,-8.96484 3.93555,-8.96484 C4.61914,-8.96484 5.21484,-8.78255 5.72266,-8.41797 L6.29883,-8.91602 C6.29883,-8.94857 6.33138,-8.96484 6.39648,-8.96484 L6.54297,-8.96484 C6.58203,-8.96484 6.61784,-8.94694 6.65039,-8.91113 C6.68294,-8.87533 6.69922,-8.83789 6.69922,-8.79883 L6.69922,-6.18164 C6.69922,-6.05794 6.64714,-5.99609 6.54297,-5.99609 L6.29883,-5.99609 C6.18164,-5.99609 6.12305,-6.05794 6.12305,-6.18164 C6.12305,-6.87826 5.92936,-7.43815 5.54199,-7.86133 C5.15462,-8.28451 4.61263,-8.49609 3.91602,-8.49609 C3.31706,-8.49609 2.79785,-8.38542 2.3584,-8.16406 C1.91895,-7.94271 1.69922,-7.56185 1.69922,-7.02148 C1.69922,-6.65039 1.8571,-6.34603 2.17285,-6.1084 C2.48861,-5.87077 2.85807,-5.69987 3.28125,-5.5957 L4.63867,-5.3418 C5.0944,-5.23763 5.51921,-5.06185 5.91309,-4.81445 C6.30697,-4.56706 6.61947,-4.25456 6.85059,-3.87695 C7.08171,-3.49935 7.19727,-3.07292 7.19727,-2.59766 C7.19727,-2.11589 7.11426,-1.69759 6.94824,-1.34277 C6.78223,-0.987956 6.55111,-0.693359 6.25488,-0.458984 C5.95866,-0.224609 5.60872,-0.0520833 5.20508,0.0585938 C4.80143,0.169271 4.37826,0.224609 3.93555,0.224609 C3.10221,0.224609 2.38932,-0.0553385 1.79688,-0.615234 L1.06445,0.175781 C1.06445,0.208333 1.02865,0.224609 0.957031,0.224609 L0.839844,0.224609 C0.722656,0.224609 0.664063,0.169271 0.664063,0.0585938 "/>
</g>

<g fill="#212121" fill-opacity="1" stroke="#212121" stroke-opacity="1" stroke-width="1" stroke-linecap="square" stroke-linejoin="round" transform="matrix(0.5,0,0,0.5,-5.06452,-7.27997)"
font-family=".AppleSystemUIFont" font-size="13" font-weight="400" font-style="normal" 
>
<polyline fill="none" vector-effect="none" points="74,285 513,285 " />
<polyline fill="none" vector-effect="none" points="74,26 513,26 " />
<polyline fill="none" vector-effect="none" points="134.185,285 134.185,280.61 " />
<polyline fill="none" vector-effect="none" points="134.185,30.39 134.185,26 " />
<polyline fill="none" vector-effect="none" points="204.992,285 204.992,280.61 " />
<polyline fill="none" vector-effect="none" points="204.992,30.39 204.992,26 " />
<polyline fill="none" vector-effect="none" points="275.798,285 275.798,280.61 " />
<polyline fill="none" vector-effect="none" points="275.798,30.39 275.798,26 " />
<polyline fill="none" vector-effect="none" points="346.605,285 346.605,280.61 " />
<polyline fill="none" vector-effect="none" points="346.605,30.39 346.605,26 " />
<polyline fill="none" vector-effect="none" points="417.411,285 417.411,280.61 " />
<polyline fill="none" vector-effect="none" points="417.411,30.39 417.411,26 " />
<polyline fill="none" vector-effect="none" points="488.218,285 488.218,280.61 " />
<polyline fill="none" vector-effect="none" points="488.218,30.39 488.218,26 " />
</g>

<g fill="#212121" fill-opacity="1" stroke="none" transform="matrix(0.5,0,0,0.5,59.6532,146.6)"
font-family=".AppleSystemUIFont" font-size="13" font-weight="400" font-style="normal" 
>
<path vector-effect="none" fill-rule="evenodd" d="M0.946289,0 L0.946289,-0.510254 C0.946289,-0.541178 0.958659,-0.575195 0.983398,-0.612305 L3.93359,-3.87793 C4.37891,-4.36035 4.74072,-4.76546 5.01904,-5.09326 C5.29736,-5.42106 5.57259,-5.79834 5.84473,-6.2251 C6.11686,-6.65186 6.33179,-7.08634 6.4895,-7.52856 C6.64722,-7.97078 6.72607,-8.43929 6.72607,-8.93408 C6.72607,-9.45361 6.63021,-9.94995 6.43848,-10.4231 C6.24674,-10.8962 5.96069,-11.2751 5.58032,-11.5596 C5.19995,-11.8441 4.74072,-11.9863 4.20264,-11.9863 C3.65218,-11.9863 3.15739,-11.8209 2.71826,-11.49 C2.27913,-11.1591 1.96989,-10.7308 1.79053,-10.2051 C1.84001,-10.2174 1.90804,-10.2236 1.99463,-10.2236 C2.27913,-10.2236 2.52189,-10.1278 2.7229,-9.93604 C2.92391,-9.7443 3.02441,-9.49691 3.02441,-9.19385 C3.02441,-8.90316 2.92391,-8.65731 2.7229,-8.4563 C2.52189,-8.25529 2.27913,-8.15479 1.99463,-8.15479 C1.69775,-8.15479 1.44881,-8.25838 1.2478,-8.46558 C1.04679,-8.67277 0.946289,-8.91553 0.946289,-9.19385 C0.946289,-9.67008 1.03597,-10.1169 1.21533,-10.5344 C1.39469,-10.9519 1.65291,-11.323 1.98999,-11.6477 C2.32707,-11.9724 2.70744,-12.2214 3.1311,-12.3945 C3.55477,-12.5677 4.00472,-12.6543 4.48096,-12.6543 C5.20459,-12.6543 5.87874,-12.5012 6.50342,-12.1951 C7.12809,-11.8889 7.62288,-11.456 7.98779,-10.8962 C8.3527,-10.3365 8.53516,-9.68245 8.53516,-8.93408 C8.53516,-8.38363 8.41455,-7.861 8.17334,-7.36621 C7.93213,-6.87142 7.62288,-6.42147 7.24561,-6.01636 C6.86833,-5.61125 6.3859,-5.15202 5.79834,-4.63867 C5.21077,-4.12533 4.82422,-3.78206 4.63867,-3.60889 L2.48633,-1.54004 L4.31396,-1.54004 C5.21077,-1.54004 5.96069,-1.54777 6.56372,-1.56323 C7.16675,-1.57869 7.48682,-1.60189 7.52393,-1.63281 C7.67236,-1.79362 7.82389,-2.37809 7.97852,-3.38623 L8.53516,-3.38623 L7.99707,0 L0.946289,0"/>
</g>

<g fill="#212121" fill-opacity="1" stroke="none" transform="matrix(0.5,0,0,0.5,95.0564,146.6)"
font-family=".AppleSystemUIFont" font-size="13" font-weight="400" font-style="normal" 
>
<path vector-effect="none" fill-rule="evenodd" d="M0.528809,-3.13574 L0.528809,-3.80371 L6.40137,-12.5615 C6.44466,-12.6234 6.5096,-12.6543 6.59619,-12.6543 L6.87451,-12.6543 C7.01676,-12.6543 7.08789,-12.5832 7.08789,-12.4409 L7.08789,-3.80371 L8.95264,-3.80371 L8.95264,-3.13574 L7.08789,-3.13574 L7.08789,-1.271 C7.08789,-1.01123 7.27344,-0.845785 7.64453,-0.774658 C8.01563,-0.703532 8.44548,-0.667969 8.93408,-0.667969 L8.93408,0 L3.70166,0 L3.70166,-0.667969 C4.19027,-0.667969 4.62012,-0.703532 4.99121,-0.774658 C5.3623,-0.845785 5.54785,-1.01123 5.54785,-1.271 L5.54785,-3.13574 L0.528809,-3.13574 M1.15967,-3.80371 L5.65918,-3.80371 L5.65918,-10.5298 L1.15967,-3.80371"/>
</g>

<g fill="#212121" fill-opacity="1" stroke="none" transform="matrix(0.5,0,0,0.5,130.46,146.6)"
font-family=".AppleSystemUIFont" font-size="13" font-weight="400" font-style="normal" 
>
<path vector-effect="none" fill-rule="evenodd" d="M4.75,0.41748 C3.96452,0.41748 3.30892,0.20874 2.7832,-0.20874 C2.25749,-0.626221 1.85083,-1.1674 1.56323,-1.83228 C1.27563,-2.49715 1.07617,-3.1945 0.964844,-3.92432 C0.853516,-4.65413 0.797852,-5.39323 0.797852,-6.1416 C0.797852,-7.14355 0.992676,-8.1486 1.38232,-9.15674 C1.77197,-10.1649 2.34562,-10.9998 3.10327,-11.6616 C3.86092,-12.3234 4.75928,-12.6543 5.79834,-12.6543 C6.23128,-12.6543 6.63485,-12.5723 7.00903,-12.4084 C7.38322,-12.2445 7.677,-12.0033 7.89038,-11.6848 C8.10376,-11.3663 8.21045,-10.9813 8.21045,-10.5298 C8.21045,-10.27 8.12231,-10.052 7.94604,-9.87573 C7.76978,-9.69946 7.55176,-9.61133 7.29199,-9.61133 C7.0446,-9.61133 6.83122,-9.70101 6.65186,-9.88037 C6.47249,-10.0597 6.38281,-10.2762 6.38281,-10.5298 C6.38281,-10.7772 6.47249,-10.9906 6.65186,-11.1699 C6.83122,-11.3493 7.0446,-11.439 7.29199,-11.439 L7.39404,-11.439 C7.23324,-11.6678 7.00594,-11.8363 6.71216,-11.9446 C6.41838,-12.0528 6.11377,-12.1069 5.79834,-12.1069 C5.41488,-12.1069 5.06079,-12.0234 4.73608,-11.8564 C4.41138,-11.6895 4.11914,-11.4637 3.85938,-11.1792 C3.59961,-10.8947 3.38314,-10.5808 3.20996,-10.2375 C3.03678,-9.89429 2.90226,-9.50309 2.8064,-9.06396 C2.71053,-8.62484 2.65023,-8.21354 2.62549,-7.83008 C2.60075,-7.44661 2.58838,-6.96419 2.58838,-6.38281 C2.81104,-6.90234 3.12646,-7.32756 3.53467,-7.65845 C3.94287,-7.98934 4.40365,-8.15479 4.91699,-8.15479 C5.47982,-8.15479 5.99316,-8.04036 6.45703,-7.81152 C6.9209,-7.58268 7.31982,-7.26571 7.65381,-6.8606 C7.98779,-6.45549 8.24292,-5.99316 8.41919,-5.47363 C8.59546,-4.9541 8.68359,-4.42839 8.68359,-3.89648 C8.68359,-3.1543 8.51815,-2.44767 8.18726,-1.77661 C7.85636,-1.10555 7.39095,-0.572103 6.79102,-0.17627 C6.19108,0.219564 5.51074,0.41748 4.75,0.41748 M4.75,-0.185547 C5.23861,-0.185547 5.63135,-0.296875 5.92822,-0.519531 C6.2251,-0.742188 6.44312,-1.03752 6.58228,-1.40552 C6.72144,-1.77352 6.80802,-2.14461 6.84204,-2.5188 C6.87606,-2.89299 6.89307,-3.35221 6.89307,-3.89648 C6.89307,-4.61393 6.85905,-5.22624 6.79102,-5.7334 C6.72298,-6.24056 6.53743,-6.68742 6.23438,-7.07397 C5.93132,-7.46053 5.46745,-7.65381 4.84277,-7.65381 C4.32943,-7.65381 3.90731,-7.48063 3.57642,-7.13428 C3.24552,-6.78792 3.00431,-6.35034 2.85278,-5.82153 C2.70125,-5.29272 2.62549,-4.78402 2.62549,-4.29541 C2.62549,-4.12842 2.63167,-4.00163 2.64404,-3.91504 C2.64404,-3.89648 2.6425,-3.88102 2.6394,-3.86865 C2.63631,-3.85628 2.63167,-3.84082 2.62549,-3.82227 C2.62549,-3.27799 2.68115,-2.72754 2.79248,-2.1709 C2.90381,-1.61426 3.11719,-1.14421 3.43262,-0.760742 C3.74805,-0.377279 4.18717,-0.185547 4.75,-0.185547 "/>
</g>

<g fill="#212121" fill-opacity="1" stroke="none" transform="matrix(0.5,0,0,0.5,165.863,146.6)"
font-family=".AppleSystemUIFont" font-size="13" font-weight="400" font-style="normal" 
>
<path vector-effect="none" fill-rule="evenodd" d="M0.797852,-2.88525 C0.797852,-3.646 1.04834,-4.3186 1.54932,-4.90308 C2.05029,-5.48755 2.69352,-5.97461 3.479,-6.36426 L2.77393,-6.81885 C2.34098,-7.10335 1.98844,-7.48218 1.71631,-7.95532 C1.44417,-8.42847 1.30811,-8.9248 1.30811,-9.44434 C1.30811,-10.0505 1.46737,-10.5978 1.78589,-11.0864 C2.10441,-11.575 2.52808,-11.9585 3.05688,-12.2368 C3.58569,-12.5151 4.15007,-12.6543 4.75,-12.6543 C5.31283,-12.6543 5.85555,-12.5399 6.37817,-12.311 C6.9008,-12.0822 7.33065,-11.7544 7.66772,-11.3276 C8.0048,-10.9009 8.17334,-10.3937 8.17334,-9.80615 C8.17334,-9.37939 8.07284,-8.98356 7.87183,-8.61865 C7.67082,-8.25374 7.39559,-7.92594 7.04614,-7.63525 C6.6967,-7.34456 6.32406,-7.09717 5.92822,-6.89307 L7.01367,-6.19727 C7.51465,-5.86947 7.91821,-5.43962 8.22437,-4.90771 C8.53052,-4.37581 8.68359,-3.81608 8.68359,-3.22852 C8.68359,-2.54199 8.49959,-1.91732 8.13159,-1.35449 C7.76359,-0.791667 7.27653,-0.355632 6.67041,-0.0463867 C6.06429,0.262858 5.42415,0.41748 4.75,0.41748 C4.0944,0.41748 3.462,0.284505 2.85278,0.0185547 C2.24357,-0.247396 1.74878,-0.632406 1.36841,-1.13647 C0.988037,-1.64054 0.797852,-2.22347 0.797852,-2.88525 M1.82764,-2.88525 C1.82764,-2.38428 1.96525,-1.9266 2.24048,-1.51221 C2.51571,-1.09782 2.87907,-0.773112 3.33057,-0.538086 C3.78206,-0.30306 4.25521,-0.185547 4.75,-0.185547 C5.486,-0.185547 6.15397,-0.400472 6.75391,-0.830322 C7.35384,-1.26017 7.65381,-1.83073 7.65381,-2.54199 C7.65381,-2.7832 7.60588,-3.02287 7.51001,-3.26099 C7.41414,-3.4991 7.28117,-3.71558 7.11108,-3.9104 C6.941,-4.10522 6.75081,-4.26449 6.54053,-4.38818 L3.98926,-6.03955 C3.59342,-5.82926 3.23006,-5.56331 2.89917,-5.2417 C2.56828,-4.92008 2.30697,-4.55827 2.11523,-4.15625 C1.9235,-3.75423 1.82764,-3.33057 1.82764,-2.88525 M3.13574,-8.68359 L5.43652,-7.19922 C5.96842,-7.50846 6.40446,-7.88265 6.74463,-8.32178 C7.0848,-8.7609 7.25488,-9.2557 7.25488,-9.80615 C7.25488,-10.2329 7.13582,-10.6241 6.89771,-10.9797 C6.65959,-11.3354 6.3488,-11.6121 5.96533,-11.8101 C5.58187,-12.008 5.17057,-12.1069 4.73145,-12.1069 C4.34798,-12.1069 3.96143,-12.0327 3.57178,-11.8843 C3.18213,-11.7358 2.86051,-11.5147 2.60693,-11.2209 C2.35335,-10.9272 2.22656,-10.5824 2.22656,-10.1865 C2.22656,-9.59277 2.52962,-9.0918 3.13574,-8.68359 "/>
</g>

<g fill="#212121" fill-opacity="1" stroke="none" transform="matrix(0.5,0,0,0.5,198.891,146.6)"
font-family=".AppleSystemUIFont" font-size="13" font-weight="400" font-style="normal" 
>
<path vector-effect="none" fill-rule="evenodd" d="M1.7627,0 L1.7627,-0.667969 C3.34603,-0.667969 4.1377,-0.868978 4.1377,-1.271 L4.1377,-11.2441 C3.4821,-10.9287 2.65332,-10.771 1.65137,-10.771 L1.65137,-11.439 C3.20378,-11.439 4.37581,-11.8441 5.16748,-12.6543 L5.43652,-12.6543 C5.47982,-12.6543 5.52157,-12.6373 5.56177,-12.6033 C5.60197,-12.5693 5.62207,-12.5306 5.62207,-12.4873 L5.62207,-1.271 C5.62207,-0.868978 6.41374,-0.667969 7.99707,-0.667969 L7.99707,0 L1.7627,0"/>
</g>

<g fill="#212121" fill-opacity="1" stroke="none" transform="matrix(0.5,0,0,0.5,203.641,146.6)"
font-family=".AppleSystemUIFont" font-size="13" font-weight="400" font-style="normal" 
>
<path vector-effect="none" fill-rule="evenodd" d="M4.75,0.41748 C3.19759,0.41748 2.14152,-0.22111 1.58179,-1.49829 C1.02205,-2.77547 0.742188,-4.29541 0.742188,-6.05811 C0.742188,-7.15902 0.842692,-8.19499 1.0437,-9.16602 C1.24471,-10.137 1.64364,-10.9612 2.24048,-11.6384 C2.83732,-12.3157 3.67383,-12.6543 4.75,-12.6543 C5.58496,-12.6543 6.26839,-12.4502 6.80029,-12.042 C7.33219,-11.6338 7.7373,-11.1065 8.01563,-10.4602 C8.29395,-9.81388 8.48413,-9.12118 8.58618,-8.38208 C8.68823,-7.64299 8.73926,-6.86833 8.73926,-6.05811 C8.73926,-4.96956 8.63875,-3.9506 8.43774,-3.00122 C8.23674,-2.05184 7.84245,-1.24471 7.25488,-0.579834 C6.66732,0.0850423 5.83236,0.41748 4.75,0.41748 M4.75,-0.0742188 C5.45508,-0.0742188 5.98079,-0.436035 6.32715,-1.15967 C6.6735,-1.8833 6.88688,-2.68424 6.96729,-3.5625 C7.04769,-4.44076 7.08789,-5.37467 7.08789,-6.36426 C7.08789,-7.31673 7.04769,-8.19499 6.96729,-8.99902 C6.88688,-9.80306 6.67505,-10.5313 6.33179,-11.1838 C5.98853,-11.8363 5.46126,-12.1626 4.75,-12.1626 C4.03255,-12.1626 3.50065,-11.8348 3.1543,-11.1792 C2.80794,-10.5236 2.59456,-9.79533 2.51416,-8.99438 C2.43376,-8.19344 2.39355,-7.31673 2.39355,-6.36426 C2.39355,-5.65918 2.41056,-4.9943 2.44458,-4.36963 C2.4786,-3.74495 2.56982,-3.10018 2.71826,-2.4353 C2.8667,-1.77043 3.10636,-1.21069 3.43726,-0.756104 C3.76815,-0.301514 4.20573,-0.0742188 4.75,-0.0742188 "/>
</g>

<g fill="#212121" fill-opacity="1" stroke="none" transform="matrix(0.5,0,0,0.5,234.294,146.6)"
font-family=".AppleSystemUIFont" font-size="13" font-weight="400" font-style="normal" 
>
<path vector-effect="none" fill-rule="evenodd" d="M1.7627,0 L1.7627,-0.667969 C3.34603,-0.667969 4.1377,-0.868978 4.1377,-1.271 L4.1377,-11.2441 C3.4821,-10.9287 2.65332,-10.771 1.65137,-10.771 L1.65137,-11.439 C3.20378,-11.439 4.37581,-11.8441 5.16748,-12.6543 L5.43652,-12.6543 C5.47982,-12.6543 5.52157,-12.6373 5.56177,-12.6033 C5.60197,-12.5693 5.62207,-12.5306 5.62207,-12.4873 L5.62207,-1.271 C5.62207,-0.868978 6.41374,-0.667969 7.99707,-0.667969 L7.99707,0 L1.7627,0"/>
</g>

<g fill="#212121" fill-opacity="1" stroke="none" transform="matrix(0.5,0,0,0.5,239.044,146.6)"
font-family=".AppleSystemUIFont" font-size="13" font-weight="400" font-style="normal" 
>
<path vector-effect="none" fill-rule="evenodd" d="M0.946289,0 L0.946289,-0.510254 C0.946289,-0.541178 0.958659,-0.575195 0.983398,-0.612305 L3.93359,-3.87793 C4.37891,-4.36035 4.74072,-4.76546 5.01904,-5.09326 C5.29736,-5.42106 5.57259,-5.79834 5.84473,-6.2251 C6.11686,-6.65186 6.33179,-7.08634 6.4895,-7.52856 C6.64722,-7.97078 6.72607,-8.43929 6.72607,-8.93408 C6.72607,-9.45361 6.63021,-9.94995 6.43848,-10.4231 C6.24674,-10.8962 5.96069,-11.2751 5.58032,-11.5596 C5.19995,-11.8441 4.74072,-11.9863 4.20264,-11.9863 C3.65218,-11.9863 3.15739,-11.8209 2.71826,-11.49 C2.27913,-11.1591 1.96989,-10.7308 1.79053,-10.2051 C1.84001,-10.2174 1.90804,-10.2236 1.99463,-10.2236 C2.27913,-10.2236 2.52189,-10.1278 2.7229,-9.93604 C2.92391,-9.7443 3.02441,-9.49691 3.02441,-9.19385 C3.02441,-8.90316 2.92391,-8.65731 2.7229,-8.4563 C2.52189,-8.25529 2.27913,-8.15479 1.99463,-8.15479 C1.69775,-8.15479 1.44881,-8.25838 1.2478,-8.46558 C1.04679,-8.67277 0.946289,-8.91553 0.946289,-9.19385 C0.946289,-9.67008 1.03597,-10.1169 1.21533,-10.5344 C1.39469,-10.9519 1.65291,-11.323 1.98999,-11.6477 C2.32707,-11.9724 2.70744,-12.2214 3.1311,-12.3945 C3.55477,-12.5677 4.00472,-12.6543 4.48096,-12.6543 C5.20459,-12.6543 5.87874,-12.5012 6.50342,-12.1951 C7.12809,-11.8889 7.62288,-11.456 7.98779,-10.8962 C8.3527,-10.3365 8.53516,-9.68245 8.53516,-8.93408 C8.53516,-8.38363 8.41455,-7.861 8.17334,-7.36621 C7.93213,-6.87142 7.62288,-6.42147 7.24561,-6.01636 C6.86833,-5.61125 6.3859,-5.15202 5.79834,-4.63867 C5.21077,-4.12533 4.82422,-3.78206 4.63867,-3.60889 L2.48633,-1.54004 L4.31396,-1.54004 C5.21077,-1.54004 5.96069,-1.54777 6.56372,-1.56323 C7.16675,-1.57869 7.48682,-1.60189 7.52393,-1.63281 C7.67236,-1.79362 7.82389,-2.37809 7.97852,-3.38623 L8.53516,-3.38623 L7.99707,0 L0.946289,0"/>
</g>

<g fill="#212121" fill-opacity="1" stroke="none" transform="matrix(0,-0.5,0.5,0,8.5,125.971)"
font-family=".AppleSystemUIFont" font-size="13" font-weight="400" font-style="normal" 
>
<path vector-effect="none" fill-rule="evenodd" d="M0.595703,0 L0.595703,-0.703125 C1.05143,-0.703125 1.42578,-0.738932 1.71875,-0.810547 C2.01172,-0.882161 2.1582,-1.05794 2.1582,-1.33789 L2.1582,-6.79688 C2.1582,-7.15495 2.10449,-7.41374 1.99707,-7.57324 C1.88965,-7.73275 1.73503,-7.8304 1.5332,-7.86621 C1.33138,-7.90202 1.01888,-7.91992 0.595703,-7.91992 L0.595703,-8.62305 L3.49609,-8.83789 L3.49609,-6.88477 C3.76302,-7.45768 4.15853,-7.92643 4.68262,-8.29102 C5.20671,-8.6556 5.77799,-8.83789 6.39648,-8.83789 C7.93294,-8.83789 8.83464,-8.21289 9.10156,-6.96289 C9.36849,-7.52279 9.75911,-7.97526 10.2734,-8.32031 C10.7878,-8.66536 11.3509,-8.83789 11.9629,-8.83789 C12.5684,-8.83789 13.0778,-8.74023 13.4912,-8.54492 C13.9046,-8.34961 14.2155,-8.05176 14.4238,-7.65137 C14.6322,-7.25098 14.7363,-6.74805 14.7363,-6.14258 L14.7363,-1.33789 C14.7363,-1.05794 14.8844,-0.882161 15.1807,-0.810547 C15.4769,-0.738932 15.8496,-0.703125 16.2988,-0.703125 L16.2988,0 L11.7188,0 L11.7188,-0.703125 C12.1745,-0.703125 12.5488,-0.738932 12.8418,-0.810547 C13.1348,-0.882161 13.2813,-1.05794 13.2813,-1.33789 L13.2813,-6.08398 C13.2813,-6.75456 13.1868,-7.29492 12.998,-7.70508 C12.8092,-8.11523 12.4219,-8.32031 11.8359,-8.32031 C11.0677,-8.32031 10.4329,-8.01107 9.93164,-7.39258 C9.43034,-6.77409 9.17969,-6.07096 9.17969,-5.2832 L9.17969,-1.33789 C9.17969,-1.05794 9.32617,-0.882161 9.61914,-0.810547 C9.91211,-0.738932 10.2865,-0.703125 10.7422,-0.703125 L10.7422,0 L6.16211,0 L6.16211,-0.703125 C6.61784,-0.703125 6.99219,-0.738932 7.28516,-0.810547 C7.57813,-0.882161 7.72461,-1.05794 7.72461,-1.33789 L7.72461,-6.08398 C7.72461,-6.73503 7.63021,-7.27051 7.44141,-7.69043 C7.2526,-8.11035 6.86523,-8.32031 6.2793,-8.32031 C5.50456,-8.32031 4.86816,-8.01107 4.37012,-7.39258 C3.87207,-6.77409 3.62305,-6.07096 3.62305,-5.2832 L3.62305,-1.33789 C3.62305,-1.05794 3.76953,-0.882161 4.0625,-0.810547 C4.35547,-0.738932 4.72656,-0.703125 5.17578,-0.703125 L5.17578,0 L0.595703,0"/>
</g>

<g fill="#212121" fill-opacity="1" stroke="none" transform="matrix(0,-0.5,0.5,0,8.5,117.263)"
font-family=".AppleSystemUIFont" font-size="13" font-weight="400" font-style="normal" 
>
<path vector-effect="none" fill-rule="evenodd" d="M0.800781,-1.96289 C0.800781,-2.75716 1.11328,-3.40332 1.73828,-3.90137 C2.36328,-4.39941 3.11361,-4.75098 3.98926,-4.95605 C4.86491,-5.16113 5.69661,-5.26367 6.48438,-5.26367 L6.48438,-6.08398 C6.48438,-6.4681 6.39974,-6.84082 6.23047,-7.20215 C6.0612,-7.56348 5.81706,-7.8597 5.49805,-8.09082 C5.17904,-8.32194 4.82747,-8.4375 4.44336,-8.4375 C3.55794,-8.4375 2.88411,-8.23893 2.42188,-7.8418 C2.67578,-7.8418 2.88574,-7.74577 3.05176,-7.55371 C3.21777,-7.36165 3.30078,-7.13867 3.30078,-6.88477 C3.30078,-6.61784 3.20638,-6.38997 3.01758,-6.20117 C2.82878,-6.01237 2.60417,-5.91797 2.34375,-5.91797 C2.07682,-5.91797 1.84896,-6.01237 1.66016,-6.20117 C1.47135,-6.38997 1.37695,-6.61784 1.37695,-6.88477 C1.37695,-7.58789 1.69596,-8.11035 2.33398,-8.45215 C2.97201,-8.79395 3.67513,-8.96484 4.44336,-8.96484 C4.98372,-8.96484 5.52734,-8.84928 6.07422,-8.61816 C6.62109,-8.38704 7.06868,-8.05664 7.41699,-7.62695 C7.7653,-7.19727 7.93945,-6.69596 7.93945,-6.12305 L7.93945,-1.62109 C7.93945,-1.36068 7.99479,-1.12142 8.10547,-0.90332 C8.21615,-0.685221 8.38867,-0.576172 8.62305,-0.576172 C8.8444,-0.576172 9.00879,-0.686849 9.11621,-0.908203 C9.22363,-1.12956 9.27734,-1.36719 9.27734,-1.62109 L9.27734,-2.90039 L9.86328,-2.90039 L9.86328,-1.62109 C9.86328,-1.32161 9.78516,-1.03678 9.62891,-0.766602 C9.47266,-0.496419 9.2627,-0.281576 8.99902,-0.12207 C8.73535,0.0374349 8.45052,0.117188 8.14453,0.117188 C7.75391,0.117188 7.41699,-0.0341797 7.13379,-0.336914 C6.85059,-0.639648 6.69271,-0.999349 6.66016,-1.41602 C6.41276,-0.914714 6.04818,-0.515951 5.56641,-0.219727 C5.08464,0.0764974 4.57031,0.224609 4.02344,0.224609 C3.51563,0.224609 3.01595,0.14974 2.52441,0 C2.03288,-0.14974 1.62272,-0.385742 1.29395,-0.708008 C0.965169,-1.03027 0.800781,-1.44857 0.800781,-1.96289 M2.42188,-1.96289 C2.42188,-1.49414 2.5944,-1.10026 2.93945,-0.78125 C3.28451,-0.46224 3.69141,-0.302734 4.16016,-0.302734 C4.58984,-0.302734 4.98047,-0.410156 5.33203,-0.625 C5.68359,-0.839844 5.96354,-1.13281 6.17188,-1.50391 C6.38021,-1.875 6.48438,-2.26563 6.48438,-2.67578 L6.48438,-4.75586 C5.87891,-4.75586 5.25879,-4.65658 4.62402,-4.45801 C3.98926,-4.25944 3.46354,-3.94857 3.04688,-3.52539 C2.63021,-3.10221 2.42188,-2.58138 2.42188,-1.96289 "/>
</g>

<g fill="#212121" fill-opacity="1" stroke="none" transform="matrix(0,-0.5,0.5,0,8.5,112.038)"
font-family=".AppleSystemUIFont" font-size="13" font-weight="400" font-style="normal" 
>
<path vector-effect="none" fill-rule="evenodd" d="M0.244141,0 L0.244141,-0.703125 C0.751953,-0.703125 1.23047,-0.802409 1.67969,-1.00098 C2.12891,-1.19954 2.50977,-1.49414 2.82227,-1.88477 L4.63867,-4.19922 L2.27539,-7.27539 C2.04102,-7.56836 1.78548,-7.74902 1.50879,-7.81738 C1.2321,-7.88574 0.843099,-7.91992 0.341797,-7.91992 L0.341797,-8.62305 L4.50195,-8.62305 L4.50195,-7.91992 C4.32617,-7.91992 4.16178,-7.88086 4.00879,-7.80273 C3.85579,-7.72461 3.7793,-7.61068 3.7793,-7.46094 C3.7793,-7.40885 3.79883,-7.34701 3.83789,-7.27539 L5.43945,-5.19531 L6.64063,-6.73828 C6.80339,-6.93359 6.88477,-7.12891 6.88477,-7.32422 C6.88477,-7.48698 6.83105,-7.62695 6.72363,-7.74414 C6.61621,-7.86133 6.47461,-7.91992 6.29883,-7.91992 L6.29883,-8.62305 L9.98047,-8.62305 L9.98047,-7.91992 C9.46615,-7.91992 8.98275,-7.82064 8.53027,-7.62207 C8.0778,-7.4235 7.69531,-7.12891 7.38281,-6.73828 L5.80078,-4.7168 L8.35938,-1.33789 C8.61328,-1.04492 8.87695,-0.865885 9.15039,-0.800781 C9.42383,-0.735677 9.81445,-0.703125 10.3223,-0.703125 L10.3223,0 L6.16211,0 L6.16211,-0.703125 C6.32487,-0.703125 6.48112,-0.742188 6.63086,-0.820313 C6.7806,-0.898438 6.85547,-1.01237 6.85547,-1.16211 C6.85547,-1.2207 6.83594,-1.2793 6.79688,-1.33789 L5,-3.7207 L3.56445,-1.88477 C3.41471,-1.71549 3.33984,-1.52018 3.33984,-1.29883 C3.33984,-1.13607 3.39518,-0.996094 3.50586,-0.878906 C3.61654,-0.761719 3.74674,-0.703125 3.89648,-0.703125 L3.89648,0 L0.244141,0"/>
</g>

<g fill="#212121" fill-opacity="1" stroke="none" transform="matrix(0,-0.5,0.5,0,8.5,103.039)"
font-family=".AppleSystemUIFont" font-size="13" font-weight="400" font-style="normal" 
>
<path vector-effect="none" fill-rule="evenodd" d="M0.595703,0 L0.595703,-0.703125 C1.05143,-0.703125 1.42578,-0.738932 1.71875,-0.810547 C2.01172,-0.882161 2.1582,-1.05794 2.1582,-1.33789 L2.1582,-6.79688 C2.1582,-7.15495 2.10449,-7.41374 1.99707,-7.57324 C1.88965,-7.73275 1.73503,-7.8304 1.5332,-7.86621 C1.33138,-7.90202 1.01888,-7.91992 0.595703,-7.91992 L0.595703,-8.62305 L3.49609,-8.83789 L3.49609,-6.88477 C3.76302,-7.45768 4.15853,-7.92643 4.68262,-8.29102 C5.20671,-8.6556 5.77799,-8.83789 6.39648,-8.83789 C7.32096,-8.83789 8.01595,-8.61654 8.48145,-8.17383 C8.94694,-7.73112 9.17969,-7.05404 9.17969,-6.14258 L9.17969,-1.33789 C9.17969,-1.05794 9.32617,-0.882161 9.61914,-0.810547 C9.91211,-0.738932 10.2865,-0.703125 10.7422,-0.703125 L10.7422,0 L6.16211,0 L6.16211,-0.703125 C6.61784,-0.703125 6.99219,-0.738932 7.28516,-0.810547 C7.57813,-0.882161 7.72461,-1.05794 7.72461,-1.33789 L7.72461,-6.08398 C7.72461,-6.73503 7.63021,-7.27051 7.44141,-7.69043 C7.2526,-8.11035 6.86523,-8.32031 6.2793,-8.32031 C5.50456,-8.32031 4.86816,-8.01107 4.37012,-7.39258 C3.87207,-6.77409 3.62305,-6.07096 3.62305,-5.2832 L3.62305,-1.33789 C3.62305,-1.05794 3.76953,-0.882161 4.0625,-0.810547 C4.35547,-0.738932 4.72656,-0.703125 5.17578,-0.703125 L5.17578,0 L0.595703,0"/>
</g>

<g fill="#212121" fill-opacity="1" stroke="none" transform="matrix(0,-0.5,0.5,0,8.5,97.2337)"
font-family=".AppleSystemUIFont" font-size="13" font-weight="400" font-style="normal" 
>
<path vector-effect="none" fill-rule="evenodd" d="M5,0.224609 C4.19922,0.224609 3.45703,0.0211589 2.77344,-0.385742 C2.08984,-0.792643 1.54948,-1.33789 1.15234,-2.02148 C0.755208,-2.70508 0.556641,-3.45052 0.556641,-4.25781 C0.556641,-4.86979 0.66569,-5.45898 0.883789,-6.02539 C1.10189,-6.5918 1.41439,-7.09798 1.82129,-7.54395 C2.22819,-7.98991 2.70182,-8.33822 3.24219,-8.58887 C3.78255,-8.83952 4.36849,-8.96484 5,-8.96484 C5.82031,-8.96484 6.56738,-8.74837 7.24121,-8.31543 C7.91504,-7.88249 8.44727,-7.30306 8.83789,-6.57715 C9.22852,-5.85124 9.42383,-5.07813 9.42383,-4.25781 C9.42383,-3.45703 9.22526,-2.71322 8.82813,-2.02637 C8.43099,-1.33952 7.89225,-0.792643 7.21191,-0.385742 C6.53158,0.0211589 5.79427,0.224609 5,0.224609 M5,-0.361328 C6.06771,-0.361328 6.7806,-0.748698 7.13867,-1.52344 C7.49674,-2.29818 7.67578,-3.28451 7.67578,-4.48242 C7.67578,-5.15299 7.63997,-5.70801 7.56836,-6.14746 C7.49674,-6.58691 7.34049,-6.98568 7.09961,-7.34375 C6.94987,-7.5651 6.75944,-7.75879 6.52832,-7.9248 C6.2972,-8.09082 6.05306,-8.21777 5.7959,-8.30566 C5.53874,-8.39355 5.27344,-8.4375 5,-8.4375 C4.58333,-8.4375 4.18783,-8.3431 3.81348,-8.1543 C3.43913,-7.96549 3.12826,-7.69531 2.88086,-7.34375 C2.63346,-6.96615 2.47559,-6.55111 2.40723,-6.09863 C2.33887,-5.64616 2.30469,-5.10742 2.30469,-4.48242 C2.30469,-3.73372 2.36979,-3.06152 2.5,-2.46582 C2.63021,-1.87012 2.89225,-1.37044 3.28613,-0.966797 C3.68001,-0.563151 4.2513,-0.361328 5,-0.361328 "/>
</g>

<g fill="#212121" fill-opacity="1" stroke="none" transform="matrix(0,-0.5,0.5,0,8.5,92.0087)"
font-family=".AppleSystemUIFont" font-size="13" font-weight="400" font-style="normal" 
>
<path vector-effect="none" fill-rule="evenodd" d="M0.517578,0 L0.517578,-0.703125 C0.973307,-0.703125 1.34766,-0.738932 1.64063,-0.810547 C1.93359,-0.882161 2.08008,-1.05794 2.08008,-1.33789 L2.08008,-6.79688 C2.08008,-7.15495 2.02637,-7.41374 1.91895,-7.57324 C1.81152,-7.73275 1.6569,-7.8304 1.45508,-7.86621 C1.25326,-7.90202 0.940755,-7.91992 0.517578,-7.91992 L0.517578,-8.62305 L3.37891,-8.83789 L3.37891,-6.88477 C3.59375,-7.46419 3.89974,-7.93457 4.29688,-8.2959 C4.69401,-8.65723 5.17578,-8.83789 5.74219,-8.83789 C6.13932,-8.83789 6.49414,-8.7207 6.80664,-8.48633 C7.11914,-8.25195 7.27539,-7.94271 7.27539,-7.55859 C7.27539,-7.31771 7.18913,-7.10775 7.0166,-6.92871 C6.84408,-6.74967 6.63086,-6.66016 6.37695,-6.66016 C6.12956,-6.66016 5.91797,-6.74805 5.74219,-6.92383 C5.56641,-7.09961 5.47852,-7.3112 5.47852,-7.55859 C5.47852,-7.91667 5.60547,-8.17057 5.85938,-8.32031 L5.74219,-8.32031 C5.20182,-8.32031 4.76074,-8.125 4.41895,-7.73438 C4.07715,-7.34375 3.83464,-6.85872 3.69141,-6.2793 C3.54818,-5.69987 3.47656,-5.14648 3.47656,-4.61914 L3.47656,-1.33789 C3.47656,-0.914714 4.12435,-0.703125 5.41992,-0.703125 L5.41992,0 L0.517578,0"/>
</g>

<g fill="#212121" fill-opacity="1" stroke="none" transform="matrix(0,-0.5,0.5,0,8.5,87.9157)"
font-family=".AppleSystemUIFont" font-size="13" font-weight="400" font-style="normal" 
>
<path vector-effect="none" fill-rule="evenodd" d="M0.595703,0 L0.595703,-0.703125 C1.05143,-0.703125 1.42578,-0.738932 1.71875,-0.810547 C2.01172,-0.882161 2.1582,-1.05794 2.1582,-1.33789 L2.1582,-6.79688 C2.1582,-7.15495 2.10449,-7.41374 1.99707,-7.57324 C1.88965,-7.73275 1.73503,-7.8304 1.5332,-7.86621 C1.33138,-7.90202 1.01888,-7.91992 0.595703,-7.91992 L0.595703,-8.62305 L3.49609,-8.83789 L3.49609,-6.88477 C3.76302,-7.45768 4.15853,-7.92643 4.68262,-8.29102 C5.20671,-8.6556 5.77799,-8.83789 6.39648,-8.83789 C7.93294,-8.83789 8.83464,-8.21289 9.10156,-6.96289 C9.36849,-7.52279 9.75911,-7.97526 10.2734,-8.32031 C10.7878,-8.66536 11.3509,-8.83789 11.9629,-8.83789 C12.5684,-8.83789 13.0778,-8.74023 13.4912,-8.54492 C13.9046,-8.34961 14.2155,-8.05176 14.4238,-7.65137 C14.6322,-7.25098 14.7363,-6.74805 14.7363,-6.14258 L14.7363,-1.33789 C14.7363,-1.05794 14.8844,-0.882161 15.1807,-0.810547 C15.4769,-0.738932 15.8496,-0.703125 16.2988,-0.703125 L16.2988,0 L11.7188,0 L11.7188,-0.703125 C12.1745,-0.703125 12.5488,-0.738932 12.8418,-0.810547 C13.1348,-0.882161 13.2813,-1.05794 13.2813,-1.33789 L13.2813,-6.08398 C13.2813,-6.75456 13.1868,-7.29492 12.998,-7.70508 C12.8092,-8.11523 12.4219,-8.32031 11.8359,-8.32031 C11.0677,-8.32031 10.4329,-8.01107 9.93164,-7.39258 C9.43034,-6.77409 9.17969,-6.07096 9.17969,-5.2832 L9.17969,-1.33789 C9.17969,-1.05794 9.32617,-0.882161 9.61914,-0.810547 C9.91211,-0.738932 10.2865,-0.703125 10.7422,-0.703125 L10.7422,0 L6.16211,0 L6.16211,-0.703125 C6.61784,-0.703125 6.99219,-0.738932 7.28516,-0.810547 C7.57813,-0.882161 7.72461,-1.05794 7.72461,-1.33789 L7.72461,-6.08398 C7.72461,-6.73503 7.63021,-7.27051 7.44141,-7.69043 C7.2526,-8.11035 6.86523,-8.32031 6.2793,-8.32031 C5.50456,-8.32031 4.86816,-8.01107 4.37012,-7.39258 C3.87207,-6.77409 3.62305,-6.07096 3.62305,-5.2832 L3.62305,-1.33789 C3.62305,-1.05794 3.76953,-0.882161 4.0625,-0.810547 C4.35547,-0.738932 4.72656,-0.703125 5.17578,-0.703125 L5.17578,0 L0.595703,0"/>
</g>

<g fill="#212121" fill-opacity="1" stroke="none" transform="matrix(0,-0.5,0.5,0,8.5,79.2074)"
font-family=".AppleSystemUIFont" font-size="13" font-weight="400" font-style="normal" 
>
<path vector-effect="none" fill-rule="evenodd" d="M0.800781,-1.96289 C0.800781,-2.75716 1.11328,-3.40332 1.73828,-3.90137 C2.36328,-4.39941 3.11361,-4.75098 3.98926,-4.95605 C4.86491,-5.16113 5.69661,-5.26367 6.48438,-5.26367 L6.48438,-6.08398 C6.48438,-6.4681 6.39974,-6.84082 6.23047,-7.20215 C6.0612,-7.56348 5.81706,-7.8597 5.49805,-8.09082 C5.17904,-8.32194 4.82747,-8.4375 4.44336,-8.4375 C3.55794,-8.4375 2.88411,-8.23893 2.42188,-7.8418 C2.67578,-7.8418 2.88574,-7.74577 3.05176,-7.55371 C3.21777,-7.36165 3.30078,-7.13867 3.30078,-6.88477 C3.30078,-6.61784 3.20638,-6.38997 3.01758,-6.20117 C2.82878,-6.01237 2.60417,-5.91797 2.34375,-5.91797 C2.07682,-5.91797 1.84896,-6.01237 1.66016,-6.20117 C1.47135,-6.38997 1.37695,-6.61784 1.37695,-6.88477 C1.37695,-7.58789 1.69596,-8.11035 2.33398,-8.45215 C2.97201,-8.79395 3.67513,-8.96484 4.44336,-8.96484 C4.98372,-8.96484 5.52734,-8.84928 6.07422,-8.61816 C6.62109,-8.38704 7.06868,-8.05664 7.41699,-7.62695 C7.7653,-7.19727 7.93945,-6.69596 7.93945,-6.12305 L7.93945,-1.62109 C7.93945,-1.36068 7.99479,-1.12142 8.10547,-0.90332 C8.21615,-0.685221 8.38867,-0.576172 8.62305,-0.576172 C8.8444,-0.576172 9.00879,-0.686849 9.11621,-0.908203 C9.22363,-1.12956 9.27734,-1.36719 9.27734,-1.62109 L9.27734,-2.90039 L9.86328,-2.90039 L9.86328,-1.62109 C9.86328,-1.32161 9.78516,-1.03678 9.62891,-0.766602 C9.47266,-0.496419 9.2627,-0.281576 8.99902,-0.12207 C8.73535,0.0374349 8.45052,0.117188 8.14453,0.117188 C7.75391,0.117188 7.41699,-0.0341797 7.13379,-0.336914 C6.85059,-0.639648 6.69271,-0.999349 6.66016,-1.41602 C6.41276,-0.914714 6.04818,-0.515951 5.56641,-0.219727 C5.08464,0.0764974 4.57031,0.224609 4.02344,0.224609 C3.51563,0.224609 3.01595,0.14974 2.52441,0 C2.03288,-0.14974 1.62272,-0.385742 1.29395,-0.708008 C0.965169,-1.03027 0.800781,-1.44857 0.800781,-1.96289 M2.42188,-1.96289 C2.42188,-1.49414 2.5944,-1.10026 2.93945,-0.78125 C3.28451,-0.46224 3.69141,-0.302734 4.16016,-0.302734 C4.58984,-0.302734 4.98047,-0.410156 5.33203,-0.625 C5.68359,-0.839844 5.96354,-1.13281 6.17188,-1.50391 C6.38021,-1.875 6.48438,-2.26563 6.48438,-2.67578 L6.48438,-4.75586 C5.87891,-4.75586 5.25879,-4.65658 4.62402,-4.45801 C3.98926,-4.25944 3.46354,-3.94857 3.04688,-3.52539 C2.63021,-3.10221 2.42188,-2.58138 2.42188,-1.96289 "/>
</g>

<g fill="#212121" fill-opacity="1" stroke="none" transform="matrix(0,-0.5,0.5,0,8.5,73.9824)"
font-family=".AppleSystemUIFont" font-size="13" font-weight="400" font-style="normal" 
>
<path vector-effect="none" fill-rule="evenodd" d="M0.615234,0 L0.615234,-0.703125 C1.07096,-0.703125 1.44531,-0.738932 1.73828,-0.810547 C2.03125,-0.882161 2.17773,-1.05794 2.17773,-1.33789 L2.17773,-11.8359 C2.17773,-12.194 2.12402,-12.4528 2.0166,-12.6123 C1.90918,-12.7718 1.75456,-12.8695 1.55273,-12.9053 C1.35091,-12.9411 1.03841,-12.959 0.615234,-12.959 L0.615234,-13.6621 L3.58398,-13.877 L3.58398,-1.33789 C3.58398,-1.05794 3.73047,-0.882161 4.02344,-0.810547 C4.31641,-0.738932 4.6875,-0.703125 5.13672,-0.703125 L5.13672,0 L0.615234,0"/>
</g>

<g fill="#212121" fill-opacity="1" stroke="none" transform="matrix(0,-0.5,0.5,0,8.5,71.0796)"
font-family=".AppleSystemUIFont" font-size="13" font-weight="400" font-style="normal" 
>
<path vector-effect="none" fill-rule="evenodd" d="M0.615234,0 L0.615234,-0.703125 C1.07096,-0.703125 1.44531,-0.738932 1.73828,-0.810547 C2.03125,-0.882161 2.17773,-1.05794 2.17773,-1.33789 L2.17773,-6.79688 C2.17773,-7.3112 2.07845,-7.62695 1.87988,-7.74414 C1.68132,-7.86133 1.28906,-7.91992 0.703125,-7.91992 L0.703125,-8.62305 L3.58398,-8.83789 L3.58398,-1.33789 C3.58398,-1.05794 3.71094,-0.882161 3.96484,-0.810547 C4.21875,-0.738932 4.55729,-0.703125 4.98047,-0.703125 L4.98047,0 L0.615234,0 M1.46484,-12.2754 C1.46484,-12.5684 1.57552,-12.8255 1.79688,-13.0469 C2.01823,-13.2682 2.27214,-13.3789 2.55859,-13.3789 C2.7474,-13.3789 2.92969,-13.3301 3.10547,-13.2324 C3.28125,-13.1348 3.41797,-12.998 3.51563,-12.8223 C3.61328,-12.6465 3.66211,-12.4642 3.66211,-12.2754 C3.66211,-11.9889 3.55143,-11.735 3.33008,-11.5137 C3.10872,-11.2923 2.85156,-11.1816 2.55859,-11.1816 C2.27214,-11.1816 2.01823,-11.2923 1.79688,-11.5137 C1.57552,-11.735 1.46484,-11.9889 1.46484,-12.2754 "/>
</g>

<g fill="#212121" fill-opacity="1" stroke="none" transform="matrix(0,-0.5,0.5,0,8.5,68.1768)"
font-family=".AppleSystemUIFont" font-size="13" font-weight="400" font-style="normal" 
>
<path vector-effect="none" fill-rule="evenodd" d="M0.664063,0.0585938 L0.664063,-3.20313 C0.664063,-3.30729 0.722656,-3.35938 0.839844,-3.35938 L1.08398,-3.35938 C1.16211,-3.35938 1.21419,-3.30729 1.24023,-3.20313 C1.61133,-1.26953 2.50977,-0.302734 3.93555,-0.302734 C4.56706,-0.302734 5.09603,-0.445964 5.52246,-0.732422 C5.94889,-1.01888 6.16211,-1.46159 6.16211,-2.06055 C6.16211,-2.49023 5.99609,-2.85645 5.66406,-3.15918 C5.33203,-3.46191 4.93815,-3.66862 4.48242,-3.7793 L3.14453,-4.04297 C2.69531,-4.14063 2.28678,-4.29036 1.91895,-4.49219 C1.55111,-4.69401 1.25,-4.96257 1.01563,-5.29785 C0.78125,-5.63314 0.664063,-6.02214 0.664063,-6.46484 C0.664063,-7.05078 0.818685,-7.53092 1.12793,-7.90527 C1.43717,-8.27962 1.83919,-8.5498 2.33398,-8.71582 C2.82878,-8.88184 3.36263,-8.96484 3.93555,-8.96484 C4.61914,-8.96484 5.21484,-8.78255 5.72266,-8.41797 L6.29883,-8.91602 C6.29883,-8.94857 6.33138,-8.96484 6.39648,-8.96484 L6.54297,-8.96484 C6.58203,-8.96484 6.61784,-8.94694 6.65039,-8.91113 C6.68294,-8.87533 6.69922,-8.83789 6.69922,-8.79883 L6.69922,-6.18164 C6.69922,-6.05794 6.64714,-5.99609 6.54297,-5.99609 L6.29883,-5.99609 C6.18164,-5.99609 6.12305,-6.05794 6.12305,-6.18164 C6.12305,-6.87826 5.92936,-7.43815 5.54199,-7.86133 C5.15462,-8.28451 4.61263,-8.49609 3.91602,-8.49609 C3.31706,-8.49609 2.79785,-8.38542 2.3584,-8.16406 C1.91895,-7.94271 1.69922,-7.56185 1.69922,-7.02148 C1.69922,-6.65039 1.8571,-6.34603 2.17285,-6.1084 C2.48861,-5.87077 2.85807,-5.69987 3.28125,-5.5957 L4.63867,-5.3418 C5.0944,-5.23763 5.51921,-5.06185 5.91309,-4.81445 C6.30697,-4.56706 6.61947,-4.25456 6.85059,-3.87695 C7.08171,-3.49935 7.19727,-3.07292 7.19727,-2.59766 C7.19727,-2.11589 7.11426,-1.69759 6.94824,-1.34277 C6.78223,-0.987956 6.55111,-0.693359 6.25488,-0.458984 C5.95866,-0.224609 5.60872,-0.0520833 5.20508,0.0585938 C4.80143,0.169271 4.37826,0.224609 3.93555,0.224609 C3.10221,0.224609 2.38932,-0.0553385 1.79688,-0.615234 L1.06445,0.175781 C1.06445,0.208333 1.02865,0.224609 0.957031,0.224609 L0.839844,0.224609 C0.722656,0.224609 0.664063,0.169271 0.664063,0.0585938 "/>
</g>

<g fill="#212121" fill-opacity="1" stroke="none" transform="matrix(0,-0.5,0.5,0,8.5,64.0549)"
font-family=".AppleSystemUIFont" font-size="13" font-weight="400" font-style="normal" 
>
<path vector-effect="none" fill-rule="evenodd" d="M4.98047,0.224609 C4.16667,0.224609 3.4196,0.0113932 2.73926,-0.415039 C2.05892,-0.841471 1.52507,-1.41113 1.1377,-2.12402 C0.750326,-2.83691 0.556641,-3.59049 0.556641,-4.38477 C0.556641,-5.16602 0.734049,-5.9082 1.08887,-6.61133 C1.44368,-7.31445 1.93848,-7.88249 2.57324,-8.31543 C3.20801,-8.74837 3.91602,-8.96484 4.69727,-8.96484 C5.30924,-8.96484 5.84147,-8.8623 6.29395,-8.65723 C6.74642,-8.45215 7.11914,-8.16732 7.41211,-7.80273 C7.70508,-7.43815 7.92643,-7.00846 8.07617,-6.51367 C8.22591,-6.01888 8.30078,-5.47526 8.30078,-4.88281 C8.30078,-4.70703 8.23242,-4.61914 8.0957,-4.61914 L2.30469,-4.61914 L2.30469,-4.4043 C2.30469,-3.29753 2.52767,-2.34701 2.97363,-1.55273 C3.4196,-0.758464 4.14714,-0.361328 5.15625,-0.361328 C5.56641,-0.361328 5.94564,-0.452474 6.29395,-0.634766 C6.64225,-0.817057 6.94499,-1.07096 7.20215,-1.39648 C7.45931,-1.72201 7.63346,-2.07031 7.72461,-2.44141 C7.73763,-2.48698 7.76204,-2.52767 7.79785,-2.56348 C7.83366,-2.59928 7.87435,-2.61719 7.91992,-2.61719 L8.0957,-2.61719 C8.23242,-2.61719 8.30078,-2.53255 8.30078,-2.36328 C8.11198,-1.60807 7.70508,-0.987956 7.08008,-0.50293 C6.45508,-0.0179036 5.75521,0.224609 4.98047,0.224609 M2.32422,-5.11719 L6.88477,-5.11719 C6.88477,-5.61849 6.81478,-6.1263 6.6748,-6.64063 C6.53483,-7.15495 6.30208,-7.58301 5.97656,-7.9248 C5.65104,-8.2666 5.22461,-8.4375 4.69727,-8.4375 C3.94206,-8.4375 3.35775,-8.08431 2.94434,-7.37793 C2.53092,-6.67155 2.32422,-5.91797 2.32422,-5.11719 "/>
</g>

<g fill="#212121" fill-opacity="1" stroke="none" transform="matrix(0,-0.5,0.5,0,8.5,59.4104)"
font-family=".AppleSystemUIFont" font-size="13" font-weight="400" font-style="normal" 
>
<path vector-effect="none" fill-rule="evenodd" d="M4.88281,0.224609 C4.09505,0.224609 3.37565,0.0113932 2.72461,-0.415039 C2.07357,-0.841471 1.56738,-1.40299 1.20605,-2.09961 C0.844727,-2.79622 0.664063,-3.53516 0.664063,-4.31641 C0.664063,-5.1237 0.861003,-5.87402 1.25488,-6.56738 C1.64876,-7.26074 2.18424,-7.8125 2.86133,-8.22266 C3.53841,-8.63281 4.28385,-8.83789 5.09766,-8.83789 C5.58594,-8.83789 6.04818,-8.73535 6.48438,-8.53027 C6.92057,-8.3252 7.29818,-8.04036 7.61719,-7.67578 L7.61719,-11.8359 C7.61719,-12.194 7.56348,-12.4528 7.45605,-12.6123 C7.34863,-12.7718 7.19564,-12.8695 6.99707,-12.9053 C6.7985,-12.9411 6.48763,-12.959 6.06445,-12.959 L6.06445,-13.6621 L9.02344,-13.877 L9.02344,-1.81641 C9.02344,-1.46484 9.07715,-1.20931 9.18457,-1.0498 C9.29199,-0.890299 9.44499,-0.792643 9.64355,-0.756836 C9.84212,-0.721029 10.153,-0.703125 10.5762,-0.703125 L10.5762,0 L7.55859,0.224609 L7.55859,-1.03516 C7.21354,-0.638021 6.80339,-0.328776 6.32813,-0.107422 C5.85286,0.113932 5.37109,0.224609 4.88281,0.224609 M2.8418,-1.73828 C3.06966,-1.30208 3.37402,-0.953776 3.75488,-0.693359 C4.13574,-0.432943 4.55078,-0.302734 5,-0.302734 C5.55339,-0.302734 6.0612,-0.46224 6.52344,-0.78125 C6.98568,-1.10026 7.33073,-1.51367 7.55859,-2.02148 L7.55859,-6.81641 C7.40234,-7.10938 7.2054,-7.37142 6.96777,-7.60254 C6.73014,-7.83366 6.46322,-8.01107 6.16699,-8.13477 C5.87077,-8.25846 5.55664,-8.32031 5.22461,-8.32031 C4.52799,-8.32031 3.9681,-8.12337 3.54492,-7.72949 C3.12174,-7.33561 2.82552,-6.83268 2.65625,-6.2207 C2.48698,-5.60872 2.40234,-4.96745 2.40234,-4.29688 C2.40234,-3.76302 2.43001,-3.29753 2.48535,-2.90039 C2.54069,-2.50326 2.65951,-2.11589 2.8418,-1.73828 "/>
</g>

<g fill="#212121" fill-opacity="1" stroke="none" transform="matrix(0,-0.5,0.5,0,8.5,50.1215)"
font-family=".AppleSystemUIFont" font-size="13" font-weight="400" font-style="normal" 
>
<path vector-effect="none" fill-rule="evenodd" d="M0.615234,0 L0.615234,-0.703125 C1.07096,-0.703125 1.44531,-0.738932 1.73828,-0.810547 C2.03125,-0.882161 2.17773,-1.05794 2.17773,-1.33789 L2.17773,-6.79688 C2.17773,-7.3112 2.07845,-7.62695 1.87988,-7.74414 C1.68132,-7.86133 1.28906,-7.91992 0.703125,-7.91992 L0.703125,-8.62305 L3.58398,-8.83789 L3.58398,-1.33789 C3.58398,-1.05794 3.71094,-0.882161 3.96484,-0.810547 C4.21875,-0.738932 4.55729,-0.703125 4.98047,-0.703125 L4.98047,0 L0.615234,0 M1.46484,-12.2754 C1.46484,-12.5684 1.57552,-12.8255 1.79688,-13.0469 C2.01823,-13.2682 2.27214,-13.3789 2.55859,-13.3789 C2.7474,-13.3789 2.92969,-13.3301 3.10547,-13.2324 C3.28125,-13.1348 3.41797,-12.998 3.51563,-12.8223 C3.61328,-12.6465 3.66211,-12.4642 3.66211,-12.2754 C3.66211,-11.9889 3.55143,-11.735 3.33008,-11.5137 C3.10872,-11.2923 2.85156,-11.1816 2.55859,-11.1816 C2.27214,-11.1816 2.01823,-11.2923 1.79688,-11.5137 C1.57552,-11.735 1.46484,-11.9889 1.46484,-12.2754 "/>
</g>

<g fill="#212121" fill-opacity="1" stroke="none" transform="matrix(0,-0.5,0.5,0,8.5,47.2187)"
font-family=".AppleSystemUIFont" font-size="13" font-weight="400" font-style="normal" 
>
<path vector-effect="none" fill-rule="evenodd" d="M0.517578,0 L0.517578,-0.703125 C0.973307,-0.703125 1.34766,-0.738932 1.64063,-0.810547 C1.93359,-0.882161 2.08008,-1.05794 2.08008,-1.33789 L2.08008,-6.79688 C2.08008,-7.15495 2.02637,-7.41374 1.91895,-7.57324 C1.81152,-7.73275 1.6569,-7.8304 1.45508,-7.86621 C1.25326,-7.90202 0.940755,-7.91992 0.517578,-7.91992 L0.517578,-8.62305 L3.37891,-8.83789 L3.37891,-6.88477 C3.59375,-7.46419 3.89974,-7.93457 4.29688,-8.2959 C4.69401,-8.65723 5.17578,-8.83789 5.74219,-8.83789 C6.13932,-8.83789 6.49414,-8.7207 6.80664,-8.48633 C7.11914,-8.25195 7.27539,-7.94271 7.27539,-7.55859 C7.27539,-7.31771 7.18913,-7.10775 7.0166,-6.92871 C6.84408,-6.74967 6.63086,-6.66016 6.37695,-6.66016 C6.12956,-6.66016 5.91797,-6.74805 5.74219,-6.92383 C5.56641,-7.09961 5.47852,-7.3112 5.47852,-7.55859 C5.47852,-7.91667 5.60547,-8.17057 5.85938,-8.32031 L5.74219,-8.32031 C5.20182,-8.32031 4.76074,-8.125 4.41895,-7.73438 C4.07715,-7.34375 3.83464,-6.85872 3.69141,-6.2793 C3.54818,-5.69987 3.47656,-5.14648 3.47656,-4.61914 L3.47656,-1.33789 C3.47656,-0.914714 4.12435,-0.703125 5.41992,-0.703125 L5.41992,0 L0.517578,0"/>
</g>

<g fill="#212121" fill-opacity="1" stroke="none" transform="matrix(0,-0.5,0.5,0,8.5,39.6425)"
font-family=".AppleSystemUIFont" font-size="13" font-weight="400" font-style="normal" 
>
<path vector-effect="none" fill-rule="evenodd" d="M0.615234,0 L0.615234,-0.703125 C1.07096,-0.703125 1.44531,-0.738932 1.73828,-0.810547 C2.03125,-0.882161 2.17773,-1.05794 2.17773,-1.33789 L2.17773,-6.79688 C2.17773,-7.3112 2.07845,-7.62695 1.87988,-7.74414 C1.68132,-7.86133 1.28906,-7.91992 0.703125,-7.91992 L0.703125,-8.62305 L3.58398,-8.83789 L3.58398,-1.33789 C3.58398,-1.05794 3.71094,-0.882161 3.96484,-0.810547 C4.21875,-0.738932 4.55729,-0.703125 4.98047,-0.703125 L4.98047,0 L0.615234,0 M1.46484,-12.2754 C1.46484,-12.5684 1.57552,-12.8255 1.79688,-13.0469 C2.01823,-13.2682 2.27214,-13.3789 2.55859,-13.3789 C2.7474,-13.3789 2.92969,-13.3301 3.10547,-13.2324 C3.28125,-13.1348 3.41797,-12.998 3.51563,-12.8223 C3.61328,-12.6465 3.66211,-12.4642 3.66211,-12.2754 C3.66211,-11.9889 3.55143,-11.735 3.33008,-11.5137 C3.10872,-11.2923 2.85156,-11.1816 2.55859,-11.1816 C2.27214,-11.1816 2.01823,-11.2923 1.79688,-11.5137 C1.57552,-11.735 1.46484,-11.9889 1.46484,-12.2754 "/>
</g>

<g fill="#212121" fill-opacity="1" stroke="none" transform="matrix(0,-0.5,0.5,0,8.5,36.7397)"
font-family=".AppleSystemUIFont" font-size="13" font-weight="400" font-style="normal" 
>
<path vector-effect="none" fill-rule="evenodd" d="M0.595703,0 L0.595703,-0.703125 C1.05143,-0.703125 1.42578,-0.738932 1.71875,-0.810547 C2.01172,-0.882161 2.1582,-1.05794 2.1582,-1.33789 L2.1582,-6.79688 C2.1582,-7.15495 2.10449,-7.41374 1.99707,-7.57324 C1.88965,-7.73275 1.73503,-7.8304 1.5332,-7.86621 C1.33138,-7.90202 1.01888,-7.91992 0.595703,-7.91992 L0.595703,-8.62305 L3.49609,-8.83789 L3.49609,-6.88477 C3.76302,-7.45768 4.15853,-7.92643 4.68262,-8.29102 C5.20671,-8.6556 5.77799,-8.83789 6.39648,-8.83789 C7.32096,-8.83789 8.01595,-8.61654 8.48145,-8.17383 C8.94694,-7.73112 9.17969,-7.05404 9.17969,-6.14258 L9.17969,-1.33789 C9.17969,-1.05794 9.32617,-0.882161 9.61914,-0.810547 C9.91211,-0.738932 10.2865,-0.703125 10.7422,-0.703125 L10.7422,0 L6.16211,0 L6.16211,-0.703125 C6.61784,-0.703125 6.99219,-0.738932 7.28516,-0.810547 C7.57813,-0.882161 7.72461,-1.05794 7.72461,-1.33789 L7.72461,-6.08398 C7.72461,-6.73503 7.63021,-7.27051 7.44141,-7.69043 C7.2526,-8.11035 6.86523,-8.32031 6.2793,-8.32031 C5.50456,-8.32031 4.86816,-8.01107 4.37012,-7.39258 C3.87207,-6.77409 3.62305,-6.07096 3.62305,-5.2832 L3.62305,-1.33789 C3.62305,-1.05794 3.76953,-0.882161 4.0625,-0.810547 C4.35547,-0.738932 4.72656,-0.703125 5.17578,-0.703125 L5.17578,0 L0.595703,0"/>
</g>

<g fill="#212121" fill-opacity="1" stroke="none" transform="matrix(0,-0.5,0.5,0,8.5,30.9341)"
font-family=".AppleSystemUIFont" font-size="13" font-weight="400" font-style="normal" 
>
<path vector-effect="none" fill-rule="evenodd" d="M4.88281,0.224609 C4.09505,0.224609 3.37565,0.0113932 2.72461,-0.415039 C2.07357,-0.841471 1.56738,-1.40299 1.20605,-2.09961 C0.844727,-2.79622 0.664063,-3.53516 0.664063,-4.31641 C0.664063,-5.1237 0.861003,-5.87402 1.25488,-6.56738 C1.64876,-7.26074 2.18424,-7.8125 2.86133,-8.22266 C3.53841,-8.63281 4.28385,-8.83789 5.09766,-8.83789 C5.58594,-8.83789 6.04818,-8.73535 6.48438,-8.53027 C6.92057,-8.3252 7.29818,-8.04036 7.61719,-7.67578 L7.61719,-11.8359 C7.61719,-12.194 7.56348,-12.4528 7.45605,-12.6123 C7.34863,-12.7718 7.19564,-12.8695 6.99707,-12.9053 C6.7985,-12.9411 6.48763,-12.959 6.06445,-12.959 L6.06445,-13.6621 L9.02344,-13.877 L9.02344,-1.81641 C9.02344,-1.46484 9.07715,-1.20931 9.18457,-1.0498 C9.29199,-0.890299 9.44499,-0.792643 9.64355,-0.756836 C9.84212,-0.721029 10.153,-0.703125 10.5762,-0.703125 L10.5762,0 L7.55859,0.224609 L7.55859,-1.03516 C7.21354,-0.638021 6.80339,-0.328776 6.32813,-0.107422 C5.85286,0.113932 5.37109,0.224609 4.88281,0.224609 M2.8418,-1.73828 C3.06966,-1.30208 3.37402,-0.953776 3.75488,-0.693359 C4.13574,-0.432943 4.55078,-0.302734 5,-0.302734 C5.55339,-0.302734 6.0612,-0.46224 6.52344,-0.78125 C6.98568,-1.10026 7.33073,-1.51367 7.55859,-2.02148 L7.55859,-6.81641 C7.40234,-7.10938 7.2054,-7.37142 6.96777,-7.60254 C6.73014,-7.83366 6.46322,-8.01107 6.16699,-8.13477 C5.87077,-8.25846 5.55664,-8.32031 5.22461,-8.32031 C4.52799,-8.32031 3.9681,-8.12337 3.54492,-7.72949 C3.12174,-7.33561 2.82552,-6.83268 2.65625,-6.2207 C2.48698,-5.60872 2.40234,-4.96745 2.40234,-4.29688 C2.40234,-3.76302 2.43001,-3.29753 2.48535,-2.90039 C2.54069,-2.50326 2.65951,-2.11589 2.8418,-1.73828 "/>
</g>

<g fill="#212121" fill-opacity="1" stroke="none" transform="matrix(0,-0.5,0.5,0,8.5,25.1285)"
font-family=".AppleSystemUIFont" font-size="13" font-weight="400" font-style="normal" 
>
<path vector-effect="none" fill-rule="evenodd" d="M4.98047,0.224609 C4.16667,0.224609 3.4196,0.0113932 2.73926,-0.415039 C2.05892,-0.841471 1.52507,-1.41113 1.1377,-2.12402 C0.750326,-2.83691 0.556641,-3.59049 0.556641,-4.38477 C0.556641,-5.16602 0.734049,-5.9082 1.08887,-6.61133 C1.44368,-7.31445 1.93848,-7.88249 2.57324,-8.31543 C3.20801,-8.74837 3.91602,-8.96484 4.69727,-8.96484 C5.30924,-8.96484 5.84147,-8.8623 6.29395,-8.65723 C6.74642,-8.45215 7.11914,-8.16732 7.41211,-7.80273 C7.70508,-7.43815 7.92643,-7.00846 8.07617,-6.51367 C8.22591,-6.01888 8.30078,-5.47526 8.30078,-4.88281 C8.30078,-4.70703 8.23242,-4.61914 8.0957,-4.61914 L2.30469,-4.61914 L2.30469,-4.4043 C2.30469,-3.29753 2.52767,-2.34701 2.97363,-1.55273 C3.4196,-0.758464 4.14714,-0.361328 5.15625,-0.361328 C5.56641,-0.361328 5.94564,-0.452474 6.29395,-0.634766 C6.64225,-0.817057 6.94499,-1.07096 7.20215,-1.39648 C7.45931,-1.72201 7.63346,-2.07031 7.72461,-2.44141 C7.73763,-2.48698 7.76204,-2.52767 7.79785,-2.56348 C7.83366,-2.59928 7.87435,-2.61719 7.91992,-2.61719 L8.0957,-2.61719 C8.23242,-2.61719 8.30078,-2.53255 8.30078,-2.36328 C8.11198,-1.60807 7.70508,-0.987956 7.08008,-0.50293 C6.45508,-0.0179036 5.75521,0.224609 4.98047,0.224609 M2.32422,-5.11719 L6.88477,-5.11719 C6.88477,-5.61849 6.81478,-6.1263 6.6748,-6.64063 C6.53483,-7.15495 6.30208,-7.58301 5.97656,-7.9248 C5.65104,-8.2666 5.22461,-8.4375 4.69727,-8.4375 C3.94206,-8.4375 3.35775,-8.08431 2.94434,-7.37793 C2.53092,-6.67155 2.32422,-5.91797 2.32422,-5.11719 "/>
</g>

<g fill="#212121" fill-opacity="1" stroke="none" transform="matrix(0,-0.5,0.5,0,8.5,20.4841)"
font-family=".AppleSystemUIFont" font-size="13" font-weight="400" font-style="normal" 
>
<path vector-effect="none" fill-rule="evenodd" d="M0.244141,0 L0.244141,-0.703125 C0.751953,-0.703125 1.23047,-0.802409 1.67969,-1.00098 C2.12891,-1.19954 2.50977,-1.49414 2.82227,-1.88477 L4.63867,-4.19922 L2.27539,-7.27539 C2.04102,-7.56836 1.78548,-7.74902 1.50879,-7.81738 C1.2321,-7.88574 0.843099,-7.91992 0.341797,-7.91992 L0.341797,-8.62305 L4.50195,-8.62305 L4.50195,-7.91992 C4.32617,-7.91992 4.16178,-7.88086 4.00879,-7.80273 C3.85579,-7.72461 3.7793,-7.61068 3.7793,-7.46094 C3.7793,-7.40885 3.79883,-7.34701 3.83789,-7.27539 L5.43945,-5.19531 L6.64063,-6.73828 C6.80339,-6.93359 6.88477,-7.12891 6.88477,-7.32422 C6.88477,-7.48698 6.83105,-7.62695 6.72363,-7.74414 C6.61621,-7.86133 6.47461,-7.91992 6.29883,-7.91992 L6.29883,-8.62305 L9.98047,-8.62305 L9.98047,-7.91992 C9.46615,-7.91992 8.98275,-7.82064 8.53027,-7.62207 C8.0778,-7.4235 7.69531,-7.12891 7.38281,-6.73828 L5.80078,-4.7168 L8.35938,-1.33789 C8.61328,-1.04492 8.87695,-0.865885 9.15039,-0.800781 C9.42383,-0.735677 9.81445,-0.703125 10.3223,-0.703125 L10.3223,0 L6.16211,0 L6.16211,-0.703125 C6.32487,-0.703125 6.48112,-0.742188 6.63086,-0.820313 C6.7806,-0.898438 6.85547,-1.01237 6.85547,-1.16211 C6.85547,-1.2207 6.83594,-1.2793 6.79688,-1.33789 L5,-3.7207 L3.56445,-1.88477 C3.41471,-1.71549 3.33984,-1.52018 3.33984,-1.29883 C3.33984,-1.13607 3.39518,-0.996094 3.50586,-0.878906 C3.61654,-0.761719 3.74674,-0.703125 3.89648,-0.703125 L3.89648,0 L0.244141,0"/>
</g>

<g fill="#212121" fill-opacity="1" stroke="#212121" stroke-opacity="1" stroke-width="1" stroke-linecap="square" stroke-linejoin="round" transform="matrix(0.5,0,0,0.5,-5.06452,-7.27997)"
font-family=".AppleSystemUIFont" font-size="13" font-weight="400" font-style="normal" 
>
<polyline fill="none" vector-effect="none" points="74,285 74,26 " />
<polyline fill="none" vector-effect="none" points="513,285 513,26 " />
<polyline fill="none" vector-effect="none" points="74,285 78.39,285 " />
<polyline fill="none" vector-effect="none" points="508.61,285 513,285 " />
<polyline fill="none" vector-effect="none" points="74,233.2 78.39,233.2 " />
<polyline fill="none" vector-effect="none" points="508.61,233.2 513,233.2 " />
<polyline fill="none" vector-effect="none" points="74,181.4 78.39,181.4 " />
<polyline fill="none" vector-effect="none" points="508.61,181.4 513,181.4 " />
<polyline fill="none" vector-effect="none" points="74,129.6 78.39,129.6 " />
<polyline fill="none" vector-effect="none" points="508.61,129.6 513,129.6 " />
<polyline fill="none" vector-effect="none" points="74,77.8 78.39,77.8 " />
<polyline fill="none" vector-effect="none" points="508.61,77.8 513,77.8 " />
<polyline fill="none" vector-effect="none" points="74,26 78.39,26 " />
<polyline fill="none" vector-effect="none" points="508.61,26 513,26 " />
</g>

<g fill="#212121" fill-opacity="1" stroke="none" transform="matrix(0.5,0,0,0.5,23.7855,137.5)"
font-family=".AppleSystemUIFont" font-size="13" font-weight="400" font-style="normal" 
>
<path vector-effect="none" fill-rule="evenodd" d="M4.75,0.41748 C3.19759,0.41748 2.14152,-0.22111 1.58179,-1.49829 C1.02205,-2.77547 0.742188,-4.29541 0.742188,-6.05811 C0.742188,-7.15902 0.842692,-8.19499 1.0437,-9.16602 C1.24471,-10.137 1.64364,-10.9612 2.24048,-11.6384 C2.83732,-12.3157 3.67383,-12.6543 4.75,-12.6543 C5.58496,-12.6543 6.26839,-12.4502 6.80029,-12.042 C7.33219,-11.6338 7.7373,-11.1065 8.01563,-10.4602 C8.29395,-9.81388 8.48413,-9.12118 8.58618,-8.38208 C8.68823,-7.64299 8.73926,-6.86833 8.73926,-6.05811 C8.73926,-4.96956 8.63875,-3.9506 8.43774,-3.00122 C8.23674,-2.05184 7.84245,-1.24471 7.25488,-0.579834 C6.66732,0.0850423 5.83236,0.41748 4.75,0.41748 M4.75,-0.0742188 C5.45508,-0.0742188 5.98079,-0.436035 6.32715,-1.15967 C6.6735,-1.8833 6.88688,-2.68424 6.96729,-3.5625 C7.04769,-4.44076 7.08789,-5.37467 7.08789,-6.36426 C7.08789,-7.31673 7.04769,-8.19499 6.96729,-8.99902 C6.88688,-9.80306 6.67505,-10.5313 6.33179,-11.1838 C5.98853,-11.8363 5.46126,-12.1626 4.75,-12.1626 C4.03255,-12.1626 3.50065,-11.8348 3.1543,-11.1792 C2.80794,-10.5236 2.59456,-9.79533 2.51416,-8.99438 C2.43376,-8.19344 2.39355,-7.31673 2.39355,-6.36426 C2.39355,-5.65918 2.41056,-4.9943 2.44458,-4.36963 C2.4786,-3.74495 2.56982,-3.10018 2.71826,-2.4353 C2.8667,-1.77043 3.10636,-1.21069 3.43726,-0.756104 C3.76815,-0.301514 4.20573,-0.0742188 4.75,-0.0742188 "/>
</g>

<g fill="#212121" fill-opacity="1" stroke="none" transform="matrix(0.5,0,0,0.5,16.3966,111.6)"
font-family=".AppleSystemUIFont" font-size="13" font-weight="400" font-style="normal" 
>
<path vector-effect="none" fill-rule="evenodd" d="M4.75,0.41748 C3.19759,0.41748 2.14152,-0.22111 1.58179,-1.49829 C1.02205,-2.77547 0.742188,-4.29541 0.742188,-6.05811 C0.742188,-7.15902 0.842692,-8.19499 1.0437,-9.16602 C1.24471,-10.137 1.64364,-10.9612 2.24048,-11.6384 C2.83732,-12.3157 3.67383,-12.6543 4.75,-12.6543 C5.58496,-12.6543 6.26839,-12.4502 6.80029,-12.042 C7.33219,-11.6338 7.7373,-11.1065 8.01563,-10.4602 C8.29395,-9.81388 8.48413,-9.12118 8.58618,-8.38208 C8.68823,-7.64299 8.73926,-6.86833 8.73926,-6.05811 C8.73926,-4.96956 8.63875,-3.9506 8.43774,-3.00122 C8.23674,-2.05184 7.84245,-1.24471 7.25488,-0.579834 C6.66732,0.0850423 5.83236,0.41748 4.75,0.41748 M4.75,-0.0742188 C5.45508,-0.0742188 5.98079,-0.436035 6.32715,-1.15967 C6.6735,-1.8833 6.88688,-2.68424 6.96729,-3.5625 C7.04769,-4.44076 7.08789,-5.37467 7.08789,-6.36426 C7.08789,-7.31673 7.04769,-8.19499 6.96729,-8.99902 C6.88688,-9.80306 6.67505,-10.5313 6.33179,-11.1838 C5.98853,-11.8363 5.46126,-12.1626 4.75,-12.1626 C4.03255,-12.1626 3.50065,-11.8348 3.1543,-11.1792 C2.80794,-10.5236 2.59456,-9.79533 2.51416,-8.99438 C2.43376,-8.19344 2.39355,-7.31673 2.39355,-6.36426 C2.39355,-5.65918 2.41056,-4.9943 2.44458,-4.36963 C2.4786,-3.74495 2.56982,-3.10018 2.71826,-2.4353 C2.8667,-1.77043 3.10636,-1.21069 3.43726,-0.756104 C3.76815,-0.301514 4.20573,-0.0742188 4.75,-0.0742188 "/>
</g>

<g fill="#212121" fill-opacity="1" stroke="none" transform="matrix(0.5,0,0,0.5,21.1466,111.6)"
font-family=".AppleSystemUIFont" font-size="13" font-weight="400" font-style="normal" 
>
<path vector-effect="none" fill-rule="evenodd" d="M1.5957,-1.04834 C1.5957,-1.33285 1.70085,-1.57715 1.91113,-1.78125 C2.12142,-1.98535 2.36572,-2.0874 2.64404,-2.0874 C2.81722,-2.0874 2.9873,-2.04102 3.1543,-1.94824 C3.32129,-1.85547 3.45117,-1.72559 3.54395,-1.55859 C3.63672,-1.3916 3.68311,-1.22152 3.68311,-1.04834 C3.68311,-0.77002 3.58105,-0.525716 3.37695,-0.31543 C3.17285,-0.105143 2.92855,0 2.64404,0 C2.36572,0 2.12142,-0.105143 1.91113,-0.31543 C1.70085,-0.525716 1.5957,-0.77002 1.5957,-1.04834 "/>
</g>

<g fill="#212121" fill-opacity="1" stroke="none" transform="matrix(0.5,0,0,0.5,23.7855,111.6)"
font-family=".AppleSystemUIFont" font-size="13" font-weight="400" font-style="normal" 
>
<path vector-effect="none" fill-rule="evenodd" d="M0.946289,0 L0.946289,-0.510254 C0.946289,-0.541178 0.958659,-0.575195 0.983398,-0.612305 L3.93359,-3.87793 C4.37891,-4.36035 4.74072,-4.76546 5.01904,-5.09326 C5.29736,-5.42106 5.57259,-5.79834 5.84473,-6.2251 C6.11686,-6.65186 6.33179,-7.08634 6.4895,-7.52856 C6.64722,-7.97078 6.72607,-8.43929 6.72607,-8.93408 C6.72607,-9.45361 6.63021,-9.94995 6.43848,-10.4231 C6.24674,-10.8962 5.96069,-11.2751 5.58032,-11.5596 C5.19995,-11.8441 4.74072,-11.9863 4.20264,-11.9863 C3.65218,-11.9863 3.15739,-11.8209 2.71826,-11.49 C2.27913,-11.1591 1.96989,-10.7308 1.79053,-10.2051 C1.84001,-10.2174 1.90804,-10.2236 1.99463,-10.2236 C2.27913,-10.2236 2.52189,-10.1278 2.7229,-9.93604 C2.92391,-9.7443 3.02441,-9.49691 3.02441,-9.19385 C3.02441,-8.90316 2.92391,-8.65731 2.7229,-8.4563 C2.52189,-8.25529 2.27913,-8.15479 1.99463,-8.15479 C1.69775,-8.15479 1.44881,-8.25838 1.2478,-8.46558 C1.04679,-8.67277 0.946289,-8.91553 0.946289,-9.19385 C0.946289,-9.67008 1.03597,-10.1169 1.21533,-10.5344 C1.39469,-10.9519 1.65291,-11.323 1.98999,-11.6477 C2.32707,-11.9724 2.70744,-12.2214 3.1311,-12.3945 C3.55477,-12.5677 4.00472,-12.6543 4.48096,-12.6543 C5.20459,-12.6543 5.87874,-12.5012 6.50342,-12.1951 C7.12809,-11.8889 7.62288,-11.456 7.98779,-10.8962 C8.3527,-10.3365 8.53516,-9.68245 8.53516,-8.93408 C8.53516,-8.38363 8.41455,-7.861 8.17334,-7.36621 C7.93213,-6.87142 7.62288,-6.42147 7.24561,-6.01636 C6.86833,-5.61125 6.3859,-5.15202 5.79834,-4.63867 C5.21077,-4.12533 4.82422,-3.78206 4.63867,-3.60889 L2.48633,-1.54004 L4.31396,-1.54004 C5.21077,-1.54004 5.96069,-1.54777 6.56372,-1.56323 C7.16675,-1.57869 7.48682,-1.60189 7.52393,-1.63281 C7.67236,-1.79362 7.82389,-2.37809 7.97852,-3.38623 L8.53516,-3.38623 L7.99707,0 L0.946289,0"/>
</g>

<g fill="#212121" fill-opacity="1" stroke="none" transform="matrix(0.5,0,0,0.5,16.3966,85.7)"
font-family=".AppleSystemUIFont" font-size="13" font-weight="400" font-style="normal" 
>
<path vector-effect="none" fill-rule="evenodd" d="M4.75,0.41748 C3.19759,0.41748 2.14152,-0.22111 1.58179,-1.49829 C1.02205,-2.77547 0.742188,-4.29541 0.742188,-6.05811 C0.742188,-7.15902 0.842692,-8.19499 1.0437,-9.16602 C1.24471,-10.137 1.64364,-10.9612 2.24048,-11.6384 C2.83732,-12.3157 3.67383,-12.6543 4.75,-12.6543 C5.58496,-12.6543 6.26839,-12.4502 6.80029,-12.042 C7.33219,-11.6338 7.7373,-11.1065 8.01563,-10.4602 C8.29395,-9.81388 8.48413,-9.12118 8.58618,-8.38208 C8.68823,-7.64299 8.73926,-6.86833 8.73926,-6.05811 C8.73926,-4.96956 8.63875,-3.9506 8.43774,-3.00122 C8.23674,-2.05184 7.84245,-1.24471 7.25488,-0.579834 C6.66732,0.0850423 5.83236,0.41748 4.75,0.41748 M4.75,-0.0742188 C5.45508,-0.0742188 5.98079,-0.436035 6.32715,-1.15967 C6.6735,-1.8833 6.88688,-2.68424 6.96729,-3.5625 C7.04769,-4.44076 7.08789,-5.37467 7.08789,-6.36426 C7.08789,-7.31673 7.04769,-8.19499 6.96729,-8.99902 C6.88688,-9.80306 6.67505,-10.5313 6.33179,-11.1838 C5.98853,-11.8363 5.46126,-12.1626 4.75,-12.1626 C4.03255,-12.1626 3.50065,-11.8348 3.1543,-11.1792 C2.80794,-10.5236 2.59456,-9.79533 2.51416,-8.99438 C2.43376,-8.19344 2.39355,-7.31673 2.39355,-6.36426 C2.39355,-5.65918 2.41056,-4.9943 2.44458,-4.36963 C2.4786,-3.74495 2.56982,-3.10018 2.71826,-2.4353 C2.8667,-1.77043 3.10636,-1.21069 3.43726,-0.756104 C3.76815,-0.301514 4.20573,-0.0742188 4.75,-0.0742188 "/>
</g>

<g fill="#212121" fill-opacity="1" stroke="none" transform="matrix(0.5,0,0,0.5,21.1466,85.7)"
font-family=".AppleSystemUIFont" font-size="13" font-weight="400" font-style="normal" 
>
<path vector-effect="none" fill-rule="evenodd" d="M1.5957,-1.04834 C1.5957,-1.33285 1.70085,-1.57715 1.91113,-1.78125 C2.12142,-1.98535 2.36572,-2.0874 2.64404,-2.0874 C2.81722,-2.0874 2.9873,-2.04102 3.1543,-1.94824 C3.32129,-1.85547 3.45117,-1.72559 3.54395,-1.55859 C3.63672,-1.3916 3.68311,-1.22152 3.68311,-1.04834 C3.68311,-0.77002 3.58105,-0.525716 3.37695,-0.31543 C3.17285,-0.105143 2.92855,0 2.64404,0 C2.36572,0 2.12142,-0.105143 1.91113,-0.31543 C1.70085,-0.525716 1.5957,-0.77002 1.5957,-1.04834 "/>
</g>

<g fill="#212121" fill-opacity="1" stroke="none" transform="matrix(0.5,0,0,0.5,23.7855,85.7)"
font-family=".AppleSystemUIFont" font-size="13" font-weight="400" font-style="normal" 
>
<path vector-effect="none" fill-rule="evenodd" d="M0.528809,-3.13574 L0.528809,-3.80371 L6.40137,-12.5615 C6.44466,-12.6234 6.5096,-12.6543 6.59619,-12.6543 L6.87451,-12.6543 C7.01676,-12.6543 7.08789,-12.5832 7.08789,-12.4409 L7.08789,-3.80371 L8.95264,-3.80371 L8.95264,-3.13574 L7.08789,-3.13574 L7.08789,-1.271 C7.08789,-1.01123 7.27344,-0.845785 7.64453,-0.774658 C8.01563,-0.703532 8.44548,-0.667969 8.93408,-0.667969 L8.93408,0 L3.70166,0 L3.70166,-0.667969 C4.19027,-0.667969 4.62012,-0.703532 4.99121,-0.774658 C5.3623,-0.845785 5.54785,-1.01123 5.54785,-1.271 L5.54785,-3.13574 L0.528809,-3.13574 M1.15967,-3.80371 L5.65918,-3.80371 L5.65918,-10.5298 L1.15967,-3.80371"/>
</g>

<g fill="#212121" fill-opacity="1" stroke="none" transform="matrix(0.5,0,0,0.5,16.3966,59.8)"
font-family=".AppleSystemUIFont" font-size="13" font-weight="400" font-style="normal" 
>
<path vector-effect="none" fill-rule="evenodd" d="M4.75,0.41748 C3.19759,0.41748 2.14152,-0.22111 1.58179,-1.49829 C1.02205,-2.77547 0.742188,-4.29541 0.742188,-6.05811 C0.742188,-7.15902 0.842692,-8.19499 1.0437,-9.16602 C1.24471,-10.137 1.64364,-10.9612 2.24048,-11.6384 C2.83732,-12.3157 3.67383,-12.6543 4.75,-12.6543 C5.58496,-12.6543 6.26839,-12.4502 6.80029,-12.042 C7.33219,-11.6338 7.7373,-11.1065 8.01563,-10.4602 C8.29395,-9.81388 8.48413,-9.12118 8.58618,-8.38208 C8.68823,-7.64299 8.73926,-6.86833 8.73926,-6.05811 C8.73926,-4.96956 8.63875,-3.9506 8.43774,-3.00122 C8.23674,-2.05184 7.84245,-1.24471 7.25488,-0.579834 C6.66732,0.0850423 5.83236,0.41748 4.75,0.41748 M4.75,-0.0742188 C5.45508,-0.0742188 5.98079,-0.436035 6.32715,-1.15967 C6.6735,-1.8833 6.88688,-2.68424 6.96729,-3.5625 C7.04769,-4.44076 7.08789,-5.37467 7.08789,-6.36426 C7.08789,-7.31673 7.04769,-8.19499 6.96729,-8.99902 C6.88688,-9.80306 6.67505,-10.5313 6.33179,-11.1838 C5.98853,-11.8363 5.46126,-12.1626 4.75,-12.1626 C4.03255,-12.1626 3.50065,-11.8348 3.1543,-11.1792 C2.80794,-10.5236 2.59456,-9.79533 2.51416,-8.99438 C2.43376,-8.19344 2.39355,-7.31673 2.39355,-6.36426 C2.39355,-5.65918 2.41056,-4.9943 2.44458,-4.36963 C2.4786,-3.74495 2.56982,-3.10018 2.71826,-2.4353 C2.8667,-1.77043 3.10636,-1.21069 3.43726,-0.756104 C3.76815,-0.301514 4.20573,-0.0742188 4.75,-0.0742188 "/>
</g>

<g fill="#212121" fill-opacity="1" stroke="none" transform="matrix(0.5,0,0,0.5,21.1466,59.8)"
font-family=".AppleSystemUIFont" font-size="13" font-weight="400" font-style="normal" 
>
<path vector-effect="none" fill-rule="evenodd" d="M1.5957,-1.04834 C1.5957,-1.33285 1.70085,-1.57715 1.91113,-1.78125 C2.12142,-1.98535 2.36572,-2.0874 2.64404,-2.0874 C2.81722,-2.0874 2.9873,-2.04102 3.1543,-1.94824 C3.32129,-1.85547 3.45117,-1.72559 3.54395,-1.55859 C3.63672,-1.3916 3.68311,-1.22152 3.68311,-1.04834 C3.68311,-0.77002 3.58105,-0.525716 3.37695,-0.31543 C3.17285,-0.105143 2.92855,0 2.64404,0 C2.36572,0 2.12142,-0.105143 1.91113,-0.31543 C1.70085,-0.525716 1.5957,-0.77002 1.5957,-1.04834 "/>
</g>

<g fill="#212121" fill-opacity="1" stroke="none" transform="matrix(0.5,0,0,0.5,23.7855,59.8)"
font-family=".AppleSystemUIFont" font-size="13" font-weight="400" font-style="normal" 
>
<path vector-effect="none" fill-rule="evenodd" d="M4.75,0.41748 C3.96452,0.41748 3.30892,0.20874 2.7832,-0.20874 C2.25749,-0.626221 1.85083,-1.1674 1.56323,-1.83228 C1.27563,-2.49715 1.07617,-3.1945 0.964844,-3.92432 C0.853516,-4.65413 0.797852,-5.39323 0.797852,-6.1416 C0.797852,-7.14355 0.992676,-8.1486 1.38232,-9.15674 C1.77197,-10.1649 2.34562,-10.9998 3.10327,-11.6616 C3.86092,-12.3234 4.75928,-12.6543 5.79834,-12.6543 C6.23128,-12.6543 6.63485,-12.5723 7.00903,-12.4084 C7.38322,-12.2445 7.677,-12.0033 7.89038,-11.6848 C8.10376,-11.3663 8.21045,-10.9813 8.21045,-10.5298 C8.21045,-10.27 8.12231,-10.052 7.94604,-9.87573 C7.76978,-9.69946 7.55176,-9.61133 7.29199,-9.61133 C7.0446,-9.61133 6.83122,-9.70101 6.65186,-9.88037 C6.47249,-10.0597 6.38281,-10.2762 6.38281,-10.5298 C6.38281,-10.7772 6.47249,-10.9906 6.65186,-11.1699 C6.83122,-11.3493 7.0446,-11.439 7.29199,-11.439 L7.39404,-11.439 C7.23324,-11.6678 7.00594,-11.8363 6.71216,-11.9446 C6.41838,-12.0528 6.11377,-12.1069 5.79834,-12.1069 C5.41488,-12.1069 5.06079,-12.0234 4.73608,-11.8564 C4.41138,-11.6895 4.11914,-11.4637 3.85938,-11.1792 C3.59961,-10.8947 3.38314,-10.5808 3.20996,-10.2375 C3.03678,-9.89429 2.90226,-9.50309 2.8064,-9.06396 C2.71053,-8.62484 2.65023,-8.21354 2.62549,-7.83008 C2.60075,-7.44661 2.58838,-6.96419 2.58838,-6.38281 C2.81104,-6.90234 3.12646,-7.32756 3.53467,-7.65845 C3.94287,-7.98934 4.40365,-8.15479 4.91699,-8.15479 C5.47982,-8.15479 5.99316,-8.04036 6.45703,-7.81152 C6.9209,-7.58268 7.31982,-7.26571 7.65381,-6.8606 C7.98779,-6.45549 8.24292,-5.99316 8.41919,-5.47363 C8.59546,-4.9541 8.68359,-4.42839 8.68359,-3.89648 C8.68359,-3.1543 8.51815,-2.44767 8.18726,-1.77661 C7.85636,-1.10555 7.39095,-0.572103 6.79102,-0.17627 C6.19108,0.219564 5.51074,0.41748 4.75,0.41748 M4.75,-0.185547 C5.23861,-0.185547 5.63135,-0.296875 5.92822,-0.519531 C6.2251,-0.742188 6.44312,-1.03752 6.58228,-1.40552 C6.72144,-1.77352 6.80802,-2.14461 6.84204,-2.5188 C6.87606,-2.89299 6.89307,-3.35221 6.89307,-3.89648 C6.89307,-4.61393 6.85905,-5.22624 6.79102,-5.7334 C6.72298,-6.24056 6.53743,-6.68742 6.23438,-7.07397 C5.93132,-7.46053 5.46745,-7.65381 4.84277,-7.65381 C4.32943,-7.65381 3.90731,-7.48063 3.57642,-7.13428 C3.24552,-6.78792 3.00431,-6.35034 2.85278,-5.82153 C2.70125,-5.29272 2.62549,-4.78402 2.62549,-4.29541 C2.62549,-4.12842 2.63167,-4.00163 2.64404,-3.91504 C2.64404,-3.89648 2.6425,-3.88102 2.6394,-3.86865 C2.63631,-3.85628 2.63167,-3.84082 2.62549,-3.82227 C2.62549,-3.27799 2.68115,-2.72754 2.79248,-2.1709 C2.90381,-1.61426 3.11719,-1.14421 3.43262,-0.760742 C3.74805,-0.377279 4.18717,-0.185547 4.75,-0.185547 "/>
</g>

<g fill="#212121" fill-opacity="1" stroke="none" transform="matrix(0.5,0,0,0.5,16.3966,33.9)"
font-family=".AppleSystemUIFont" font-size="13" font-weight="400" font-style="normal" 
>
<path vector-effect="none" fill-rule="evenodd" d="M4.75,0.41748 C3.19759,0.41748 2.14152,-0.22111 1.58179,-1.49829 C1.02205,-2.77547 0.742188,-4.29541 0.742188,-6.05811 C0.742188,-7.15902 0.842692,-8.19499 1.0437,-9.16602 C1.24471,-10.137 1.64364,-10.9612 2.24048,-11.6384 C2.83732,-12.3157 3.67383,-12.6543 4.75,-12.6543 C5.58496,-12.6543 6.26839,-12.4502 6.80029,-12.042 C7.33219,-11.6338 7.7373,-11.1065 8.01563,-10.4602 C8.29395,-9.81388 8.48413,-9.12118 8.58618,-8.38208 C8.68823,-7.64299 8.73926,-6.86833 8.73926,-6.05811 C8.73926,-4.96956 8.63875,-3.9506 8.43774,-3.00122 C8.23674,-2.05184 7.84245,-1.24471 7.25488,-0.579834 C6.66732,0.0850423 5.83236,0.41748 4.75,0.41748 M4.75,-0.0742188 C5.45508,-0.0742188 5.98079,-0.436035 6.32715,-1.15967 C6.6735,-1.8833 6.88688,-2.68424 6.96729,-3.5625 C7.04769,-4.44076 7.08789,-5.37467 7.08789,-6.36426 C7.08789,-7.31673 7.04769,-8.19499 6.96729,-8.99902 C6.88688,-9.80306 6.67505,-10.5313 6.33179,-11.1838 C5.98853,-11.8363 5.46126,-12.1626 4.75,-12.1626 C4.03255,-12.1626 3.50065,-11.8348 3.1543,-11.1792 C2.80794,-10.5236 2.59456,-9.79533 2.51416,-8.99438 C2.43376,-8.19344 2.39355,-7.31673 2.39355,-6.36426 C2.39355,-5.65918 2.41056,-4.9943 2.44458,-4.36963 C2.4786,-3.74495 2.56982,-3.10018 2.71826,-2.4353 C2.8667,-1.77043 3.10636,-1.21069 3.43726,-0.756104 C3.76815,-0.301514 4.20573,-0.0742188 4.75,-0.0742188 "/>
</g>

<g fill="#212121" fill-opacity="1" stroke="none" transform="matrix(0.5,0,0,0.5,21.1466,33.9)"
font-family=".AppleSystemUIFont" font-size="13" font-weight="400" font-style="normal" 
>
<path vector-effect="none" fill-rule="evenodd" d="M1.5957,-1.04834 C1.5957,-1.33285 1.70085,-1.57715 1.91113,-1.78125 C2.12142,-1.98535 2.36572,-2.0874 2.64404,-2.0874 C2.81722,-2.0874 2.9873,-2.04102 3.1543,-1.94824 C3.32129,-1.85547 3.45117,-1.72559 3.54395,-1.55859 C3.63672,-1.3916 3.68311,-1.22152 3.68311,-1.04834 C3.68311,-0.77002 3.58105,-0.525716 3.37695,-0.31543 C3.17285,-0.105143 2.92855,0 2.64404,0 C2.36572,0 2.12142,-0.105143 1.91113,-0.31543 C1.70085,-0.525716 1.5957,-0.77002 1.5957,-1.04834 "/>
</g>

<g fill="#212121" fill-opacity="1" stroke="none" transform="matrix(0.5,0,0,0.5,23.7855,33.9)"
font-family=".AppleSystemUIFont" font-size="13" font-weight="400" font-style="normal" 
>
<path vector-effect="none" fill-rule="evenodd" d="M0.797852,-2.88525 C0.797852,-3.646 1.04834,-4.3186 1.54932,-4.90308 C2.05029,-5.48755 2.69352,-5.97461 3.479,-6.36426 L2.77393,-6.81885 C2.34098,-7.10335 1.98844,-7.48218 1.71631,-7.95532 C1.44417,-8.42847 1.30811,-8.9248 1.30811,-9.44434 C1.30811,-10.0505 1.46737,-10.5978 1.78589,-11.0864 C2.10441,-11.575 2.52808,-11.9585 3.05688,-12.2368 C3.58569,-12.5151 4.15007,-12.6543 4.75,-12.6543 C5.31283,-12.6543 5.85555,-12.5399 6.37817,-12.311 C6.9008,-12.0822 7.33065,-11.7544 7.66772,-11.3276 C8.0048,-10.9009 8.17334,-10.3937 8.17334,-9.80615 C8.17334,-9.37939 8.07284,-8.98356 7.87183,-8.61865 C7.67082,-8.25374 7.39559,-7.92594 7.04614,-7.63525 C6.6967,-7.34456 6.32406,-7.09717 5.92822,-6.89307 L7.01367,-6.19727 C7.51465,-5.86947 7.91821,-5.43962 8.22437,-4.90771 C8.53052,-4.37581 8.68359,-3.81608 8.68359,-3.22852 C8.68359,-2.54199 8.49959,-1.91732 8.13159,-1.35449 C7.76359,-0.791667 7.27653,-0.355632 6.67041,-0.0463867 C6.06429,0.262858 5.42415,0.41748 4.75,0.41748 C4.0944,0.41748 3.462,0.284505 2.85278,0.0185547 C2.24357,-0.247396 1.74878,-0.632406 1.36841,-1.13647 C0.988037,-1.64054 0.797852,-2.22347 0.797852,-2.88525 M1.82764,-2.88525 C1.82764,-2.38428 1.96525,-1.9266 2.24048,-1.51221 C2.51571,-1.09782 2.87907,-0.773112 3.33057,-0.538086 C3.78206,-0.30306 4.25521,-0.185547 4.75,-0.185547 C5.486,-0.185547 6.15397,-0.400472 6.75391,-0.830322 C7.35384,-1.26017 7.65381,-1.83073 7.65381,-2.54199 C7.65381,-2.7832 7.60588,-3.02287 7.51001,-3.26099 C7.41414,-3.4991 7.28117,-3.71558 7.11108,-3.9104 C6.941,-4.10522 6.75081,-4.26449 6.54053,-4.38818 L3.98926,-6.03955 C3.59342,-5.82926 3.23006,-5.56331 2.89917,-5.2417 C2.56828,-4.92008 2.30697,-4.55827 2.11523,-4.15625 C1.9235,-3.75423 1.82764,-3.33057 1.82764,-2.88525 M3.13574,-8.68359 L5.43652,-7.19922 C5.96842,-7.50846 6.40446,-7.88265 6.74463,-8.32178 C7.0848,-8.7609 7.25488,-9.2557 7.25488,-9.80615 C7.25488,-10.2329 7.13582,-10.6241 6.89771,-10.9797 C6.65959,-11.3354 6.3488,-11.6121 5.96533,-11.8101 C5.58187,-12.008 5.17057,-12.1069 4.73145,-12.1069 C4.34798,-12.1069 3.96143,-12.0327 3.57178,-11.8843 C3.18213,-11.7358 2.86051,-11.5147 2.60693,-11.2209 C2.35335,-10.9272 2.22656,-10.5824 2.22656,-10.1865 C2.22656,-9.59277 2.52962,-9.0918 3.13574,-8.68359 "/>
</g>

<g fill="#212121" fill-opacity="1" stroke="none" transform="matrix(0.5,0,0,0.5,23.7855,8)"
font-family=".AppleSystemUIFont" font-size="13" font-weight="400" font-style="normal" 
>
<path vector-effect="none" fill-rule="evenodd" d="M1.7627,0 L1.7627,-0.667969 C3.34603,-0.667969 4.1377,-0.868978 4.1377,-1.271 L4.1377,-11.2441 C3.4821,-10.9287 2.65332,-10.771 1.65137,-10.771 L1.65137,-11.439 C3.20378,-11.439 4.37581,-11.8441 5.16748,-12.6543 L5.43652,-12.6543 C5.47982,-12.6543 5.52157,-12.6373 5.56177,-12.6033 C5.60197,-12.5693 5.62207,-12.5306 5.62207,-12.4873 L5.62207,-1.271 C5.62207,-0.868978 6.41374,-0.667969 7.99707,-0.667969 L7.99707,0 L1.7627,0"/>
</g>

<g fill="#212121" fill-opacity="1" stroke="#212121" stroke-opacity="1" stroke-width="1" stroke-linecap="butt" stroke-linejoin="round" transform="matrix(0.5,0,0,0.5,-5.06452,-7.27997)"
font-family=".AppleSystemUIFont" font-size="13" font-weight="400" font-style="normal" 
>
<polyline fill="none" vector-effect="none" points="74,285 513,285 " />
</g>

<g fill="#0072bd" fill-opacity="1" stroke="none" transform="matrix(5e-05,0,0,5e-05,-5.06452,-7.27997)"
font-family=".AppleSystemUIFont" font-size="13" font-weight="400" font-style="normal" 
>
<path vector-effect="none" fill-rule="evenodd" d="M1.90831e+06,2.8241e+06 L1.90831e+06,2.85e+06 L2.19153e+06,2.85e+06 L2.19153e+06,2.8241e+06 L1.90831e+06,2.8241e+06"/>
</g>

<g fill="#0072bd" fill-opacity="1" stroke="none" transform="matrix(5e-05,0,0,5e-05,-5.06452,-7.27997)"
font-family=".AppleSystemUIFont" font-size="13" font-weight="400" font-style="normal" 
>
<path vector-effect="none" fill-rule="evenodd" d="M2.26234e+06,2.8241e+06 L2.26234e+06,2.85e+06 L2.54556e+06,2.85e+06 L2.54556e+06,2.8241e+06 L2.26234e+06,2.8241e+06"/>
</g>

<g fill="#0072bd" fill-opacity="1" stroke="none" transform="matrix(5e-05,0,0,5e-05,-5.06452,-7.27997)"
font-family=".AppleSystemUIFont" font-size="13" font-weight="400" font-style="normal" 
>
<path vector-effect="none" fill-rule="evenodd" d="M2.61637e+06,2.7982e+06 L2.61637e+06,2.85e+06 L2.8996e+06,2.85e+06 L2.8996e+06,2.7982e+06 L2.61637e+06,2.7982e+06"/>
</g>

<g fill="#0072bd" fill-opacity="1" stroke="none" transform="matrix(5e-05,0,0,5e-05,-5.06452,-7.27997)"
font-family=".AppleSystemUIFont" font-size="13" font-weight="400" font-style="normal" 
>
<path vector-effect="none" fill-rule="evenodd" d="M2.9704e+06,2.7723e+06 L2.9704e+06,2.85e+06 L3.25363e+06,2.85e+06 L3.25363e+06,2.7723e+06 L2.9704e+06,2.7723e+06"/>
</g>

<g fill="#0072bd" fill-opacity="1" stroke="none" transform="matrix(5e-05,0,0,5e-05,-5.06452,-7.27997)"
font-family=".AppleSystemUIFont" font-size="13" font-weight="400" font-style="normal" 
>
<path vector-effect="none" fill-rule="evenodd" d="M3.32444e+06,2.7205e+06 L3.32444e+06,2.85e+06 L3.60766e+06,2.85e+06 L3.60766e+06,2.7205e+06 L3.32444e+06,2.7205e+06"/>
</g>

<g fill="#0072bd" fill-opacity="1" stroke="none" transform="matrix(5e-05,0,0,5e-05,-5.06452,-7.27997)"
font-family=".AppleSystemUIFont" font-size="13" font-weight="400" font-style="normal" 
>
<path vector-effect="none" fill-rule="evenodd" d="M3.67847e+06,2.6428e+06 L3.67847e+06,2.85e+06 L3.96169e+06,2.85e+06 L3.96169e+06,2.6428e+06 L3.67847e+06,2.6428e+06"/>
</g>

<g fill="#0072bd" fill-opacity="1" stroke="none" transform="matrix(5e-05,0,0,5e-05,-5.06452,-7.27997)"
font-family=".AppleSystemUIFont" font-size="13" font-weight="400" font-style="normal" 
>
<path vector-effect="none" fill-rule="evenodd" d="M4.0325e+06,1.6845e+06 L4.0325e+06,2.85e+06 L4.31573e+06,2.85e+06 L4.31573e+06,1.6845e+06 L4.0325e+06,1.6845e+06"/>
</g>

<g fill="#0072bd" fill-opacity="1" stroke="none" transform="matrix(5e-05,0,0,5e-05,-5.06452,-7.27997)"
font-family=".AppleSystemUIFont" font-size="13" font-weight="400" font-style="normal" 
>
<path vector-effect="none" fill-rule="evenodd" d="M4.38653e+06,777999 L4.38653e+06,2.85e+06 L4.66976e+06,2.85e+06 L4.66976e+06,777999 L4.38653e+06,777999"/>
</g>

<g fill="#0072bd" fill-opacity="1" stroke="none" transform="matrix(5e-05,0,0,5e-05,-5.06452,-7.27997)"
font-family=".AppleSystemUIFont" font-size="13" font-weight="400" font-style="normal" 
>
<path vector-effect="none" fill-rule="evenodd" d="M4.74056e+06,260000 L4.74056e+06,2.85e+06 L5.02379e+06,2.85e+06 L5.02379e+06,260000 L4.74056e+06,260000"/>
</g>

<g fill="none" stroke="#212121" stroke-opacity="1" stroke-width="1" stroke-linecap="butt" stroke-linejoin="miter" stroke-miterlimit="2" transform="matrix(0.5,0,0,0.5,-5.06452,-7.27997)"
font-family=".AppleSystemUIFont" font-size="13" font-weight="400" font-style="normal" 
>
<path vector-effect="none" fill-rule="evenodd" d="M84.621,285 L112.944,285 L84.621,285"/>
<path vector-effect="none" fill-rule="evenodd" d="M120.024,285 L148.347,285 L120.024,285"/>
<path vector-effect="none" fill-rule="evenodd" d="M155.427,285 L183.75,285 L155.427,285"/>
<path vector-effect="none" fill-rule="evenodd" d="M190.831,285 L190.831,282.41 L219.153,282.41 L219.153,285 L190.831,285"/>
<path vector-effect="none" fill-rule="evenodd" d="M226.234,285 L226.234,282.41 L254.556,282.41 L254.556,285 L226.234,285"/>
<path vector-effect="none" fill-rule="evenodd" d="M261.637,285 L261.637,279.82 L289.96,279.82 L289.96,285 L261.637,285"/>
<path vector-effect="none" fill-rule="evenodd" d="M297.04,285 L297.04,277.23 L325.363,277.23 L325.363,285 L297.04,285"/>
<path vector-effect="none" fill-rule="evenodd" d="M332.444,285 L332.444,272.05 L360.766,272.05 L360.766,285 L332.444,285"/>
<path vector-effect="none" fill-rule="evenodd" d="M367.847,285 L367.847,264.28 L396.169,264.28 L396.169,285 L367.847,285"/>
<path vector-effect="none" fill-rule="evenodd" d="M403.25,285 L403.25,168.45 L431.573,168.45 L431.573,285 L403.25,285"/>
<path vector-effect="none" fill-rule="evenodd" d="M438.653,285 L438.653,77.8 L466.976,77.8 L466.976,285 L438.653,285"/>
<path vector-effect="none" fill-rule="evenodd" d="M474.056,285 L474.056,26 L502.379,26 L502.379,285 L474.056,285"/>
</g>

<g fill="#000000" fill-opacity="0.701961" stroke="#000000" stroke-opacity="0.701961" stroke-dasharray="10,6" stroke-dashoffset="0" stroke-width="2" stroke-linecap="butt" stroke-linejoin="round" transform="matrix(0.5,0,0,0.5,-5.06452,-7.27997)"
font-family=".AppleSystemUIFont" font-size="13" font-weight="400" font-style="normal" 
>
<polyline fill="none" vector-effect="none" points="74,246.15 513,246.15 " />
</g>
</g>
</svg>
